<mxfile host="Electron" modified="2023-05-08T05:11:11.486Z" agent="Mozilla/5.0 (Windows NT 10.0; Win64; x64) AppleWebKit/537.36 (KHTML, like Gecko) draw.io/21.1.2 Chrome/106.0.5249.199 Electron/21.4.3 Safari/537.36" etag="hY9PSS8QT7mjOaiV5V_f" version="21.1.2" type="device">
  <diagram name="Page-1" id="AYPhJzQldsHgt331nSKh">
    <mxGraphModel dx="4819" dy="2583" grid="1" gridSize="10" guides="1" tooltips="1" connect="1" arrows="1" fold="1" page="1" pageScale="1" pageWidth="850" pageHeight="1100" math="0" shadow="0">
      <root>
        <mxCell id="0" />
        <mxCell id="1" parent="0" />
        <mxCell id="kWqV8s7BQ7N3uEAR5WDc-402" value="AWS Account" style="points=[[0,0],[0.25,0],[0.5,0],[0.75,0],[1,0],[1,0.25],[1,0.5],[1,0.75],[1,1],[0.75,1],[0.5,1],[0.25,1],[0,1],[0,0.75],[0,0.5],[0,0.25]];outlineConnect=0;gradientColor=none;html=1;whiteSpace=wrap;fontSize=12;fontStyle=0;container=1;pointerEvents=0;collapsible=0;recursiveResize=0;shape=mxgraph.aws4.group;grIcon=mxgraph.aws4.group_account;strokeColor=#CD2264;fillColor=none;verticalAlign=top;align=left;spacingLeft=30;fontColor=#CD2264;dashed=0;" parent="1" vertex="1">
          <mxGeometry x="-775" y="-450" width="2155" height="1330" as="geometry" />
        </mxCell>
        <mxCell id="kWqV8s7BQ7N3uEAR5WDc-838" style="edgeStyle=orthogonalEdgeStyle;rounded=0;orthogonalLoop=1;jettySize=auto;html=1;" parent="kWqV8s7BQ7N3uEAR5WDc-402" source="kWqV8s7BQ7N3uEAR5WDc-836" target="kWqV8s7BQ7N3uEAR5WDc-837" edge="1">
          <mxGeometry relative="1" as="geometry" />
        </mxCell>
        <mxCell id="kWqV8s7BQ7N3uEAR5WDc-836" value="VPN&#xa;Connection" style="sketch=0;outlineConnect=0;fontColor=#232F3E;gradientColor=none;strokeColor=#232F3E;fillColor=#ffffff;dashed=0;verticalLabelPosition=bottom;verticalAlign=top;align=center;html=1;fontSize=12;fontStyle=0;aspect=fixed;shape=mxgraph.aws4.resourceIcon;resIcon=mxgraph.aws4.vpn_connection;" parent="kWqV8s7BQ7N3uEAR5WDc-402" vertex="1">
          <mxGeometry x="375" y="40" width="220" height="220" as="geometry" />
        </mxCell>
        <mxCell id="kWqV8s7BQ7N3uEAR5WDc-837" value="Customer&#xa;gateway" style="sketch=0;outlineConnect=0;fontColor=#232F3E;gradientColor=none;strokeColor=#232F3E;fillColor=#ffffff;dashed=0;verticalLabelPosition=bottom;verticalAlign=top;align=center;html=1;fontSize=12;fontStyle=0;aspect=fixed;shape=mxgraph.aws4.resourceIcon;resIcon=mxgraph.aws4.customer_gateway;" parent="kWqV8s7BQ7N3uEAR5WDc-402" vertex="1">
          <mxGeometry x="65" y="37.5" width="222.5" height="222.5" as="geometry" />
        </mxCell>
        <mxCell id="JDcblKeP8Rod2Rn7jInz-202" value="" style="shape=table;startSize=0;container=1;collapsible=0;childLayout=tableLayout;" vertex="1" parent="kWqV8s7BQ7N3uEAR5WDc-402">
          <mxGeometry x="575" y="1080" width="420" height="80" as="geometry" />
        </mxCell>
        <mxCell id="JDcblKeP8Rod2Rn7jInz-203" value="" style="shape=tableRow;horizontal=0;startSize=0;swimlaneHead=0;swimlaneBody=0;strokeColor=inherit;top=0;left=0;bottom=0;right=0;collapsible=0;dropTarget=0;fillColor=none;points=[[0,0.5],[1,0.5]];portConstraint=eastwest;" vertex="1" parent="JDcblKeP8Rod2Rn7jInz-202">
          <mxGeometry width="420" height="40" as="geometry" />
        </mxCell>
        <mxCell id="JDcblKeP8Rod2Rn7jInz-204" value="&lt;font style=&quot;font-size: 20px;&quot;&gt;Destination&lt;/font&gt;" style="shape=partialRectangle;html=1;whiteSpace=wrap;connectable=0;strokeColor=inherit;overflow=hidden;fillColor=none;top=0;left=0;bottom=0;right=0;pointerEvents=1;" vertex="1" parent="JDcblKeP8Rod2Rn7jInz-203">
          <mxGeometry width="140" height="40" as="geometry">
            <mxRectangle width="140" height="40" as="alternateBounds" />
          </mxGeometry>
        </mxCell>
        <mxCell id="JDcblKeP8Rod2Rn7jInz-205" value="&lt;font style=&quot;font-size: 20px;&quot;&gt;Type&lt;/font&gt;" style="shape=partialRectangle;html=1;whiteSpace=wrap;connectable=0;strokeColor=inherit;overflow=hidden;fillColor=none;top=0;left=0;bottom=0;right=0;pointerEvents=1;" vertex="1" parent="JDcblKeP8Rod2Rn7jInz-203">
          <mxGeometry x="140" width="140" height="40" as="geometry">
            <mxRectangle width="140" height="40" as="alternateBounds" />
          </mxGeometry>
        </mxCell>
        <mxCell id="JDcblKeP8Rod2Rn7jInz-206" value="&lt;font style=&quot;font-size: 20px;&quot;&gt;Target&lt;/font&gt;" style="shape=partialRectangle;html=1;whiteSpace=wrap;connectable=0;strokeColor=inherit;overflow=hidden;fillColor=none;top=0;left=0;bottom=0;right=0;pointerEvents=1;" vertex="1" parent="JDcblKeP8Rod2Rn7jInz-203">
          <mxGeometry x="280" width="140" height="40" as="geometry">
            <mxRectangle width="140" height="40" as="alternateBounds" />
          </mxGeometry>
        </mxCell>
        <mxCell id="JDcblKeP8Rod2Rn7jInz-207" style="shape=tableRow;horizontal=0;startSize=0;swimlaneHead=0;swimlaneBody=0;strokeColor=inherit;top=0;left=0;bottom=0;right=0;collapsible=0;dropTarget=0;fillColor=none;points=[[0,0.5],[1,0.5]];portConstraint=eastwest;" vertex="1" parent="JDcblKeP8Rod2Rn7jInz-202">
          <mxGeometry y="40" width="420" height="40" as="geometry" />
        </mxCell>
        <mxCell id="JDcblKeP8Rod2Rn7jInz-208" style="shape=partialRectangle;html=1;whiteSpace=wrap;connectable=0;strokeColor=inherit;overflow=hidden;fillColor=none;top=0;left=0;bottom=0;right=0;pointerEvents=1;" vertex="1" parent="JDcblKeP8Rod2Rn7jInz-207">
          <mxGeometry width="140" height="40" as="geometry">
            <mxRectangle width="140" height="40" as="alternateBounds" />
          </mxGeometry>
        </mxCell>
        <mxCell id="JDcblKeP8Rod2Rn7jInz-209" style="shape=partialRectangle;html=1;whiteSpace=wrap;connectable=0;strokeColor=inherit;overflow=hidden;fillColor=none;top=0;left=0;bottom=0;right=0;pointerEvents=1;" vertex="1" parent="JDcblKeP8Rod2Rn7jInz-207">
          <mxGeometry x="140" width="140" height="40" as="geometry">
            <mxRectangle width="140" height="40" as="alternateBounds" />
          </mxGeometry>
        </mxCell>
        <mxCell id="JDcblKeP8Rod2Rn7jInz-210" style="shape=partialRectangle;html=1;whiteSpace=wrap;connectable=0;strokeColor=inherit;overflow=hidden;fillColor=none;top=0;left=0;bottom=0;right=0;pointerEvents=1;" vertex="1" parent="JDcblKeP8Rod2Rn7jInz-207">
          <mxGeometry x="280" width="140" height="40" as="geometry">
            <mxRectangle width="140" height="40" as="alternateBounds" />
          </mxGeometry>
        </mxCell>
        <mxCell id="JDcblKeP8Rod2Rn7jInz-229" value="" style="shape=table;startSize=0;container=1;collapsible=0;childLayout=tableLayout;" vertex="1" parent="kWqV8s7BQ7N3uEAR5WDc-402">
          <mxGeometry x="1685" y="930" width="420" height="80" as="geometry" />
        </mxCell>
        <mxCell id="JDcblKeP8Rod2Rn7jInz-230" value="" style="shape=tableRow;horizontal=0;startSize=0;swimlaneHead=0;swimlaneBody=0;strokeColor=inherit;top=0;left=0;bottom=0;right=0;collapsible=0;dropTarget=0;fillColor=none;points=[[0,0.5],[1,0.5]];portConstraint=eastwest;" vertex="1" parent="JDcblKeP8Rod2Rn7jInz-229">
          <mxGeometry width="420" height="40" as="geometry" />
        </mxCell>
        <mxCell id="JDcblKeP8Rod2Rn7jInz-231" value="&lt;font style=&quot;font-size: 20px;&quot;&gt;Destination&lt;/font&gt;" style="shape=partialRectangle;html=1;whiteSpace=wrap;connectable=0;strokeColor=inherit;overflow=hidden;fillColor=none;top=0;left=0;bottom=0;right=0;pointerEvents=1;" vertex="1" parent="JDcblKeP8Rod2Rn7jInz-230">
          <mxGeometry width="140" height="40" as="geometry">
            <mxRectangle width="140" height="40" as="alternateBounds" />
          </mxGeometry>
        </mxCell>
        <mxCell id="JDcblKeP8Rod2Rn7jInz-232" value="&lt;font style=&quot;font-size: 20px;&quot;&gt;Type&lt;/font&gt;" style="shape=partialRectangle;html=1;whiteSpace=wrap;connectable=0;strokeColor=inherit;overflow=hidden;fillColor=none;top=0;left=0;bottom=0;right=0;pointerEvents=1;" vertex="1" parent="JDcblKeP8Rod2Rn7jInz-230">
          <mxGeometry x="140" width="140" height="40" as="geometry">
            <mxRectangle width="140" height="40" as="alternateBounds" />
          </mxGeometry>
        </mxCell>
        <mxCell id="JDcblKeP8Rod2Rn7jInz-233" value="&lt;font style=&quot;font-size: 20px;&quot;&gt;Target&lt;/font&gt;" style="shape=partialRectangle;html=1;whiteSpace=wrap;connectable=0;strokeColor=inherit;overflow=hidden;fillColor=none;top=0;left=0;bottom=0;right=0;pointerEvents=1;" vertex="1" parent="JDcblKeP8Rod2Rn7jInz-230">
          <mxGeometry x="280" width="140" height="40" as="geometry">
            <mxRectangle width="140" height="40" as="alternateBounds" />
          </mxGeometry>
        </mxCell>
        <mxCell id="JDcblKeP8Rod2Rn7jInz-234" style="shape=tableRow;horizontal=0;startSize=0;swimlaneHead=0;swimlaneBody=0;strokeColor=inherit;top=0;left=0;bottom=0;right=0;collapsible=0;dropTarget=0;fillColor=none;points=[[0,0.5],[1,0.5]];portConstraint=eastwest;" vertex="1" parent="JDcblKeP8Rod2Rn7jInz-229">
          <mxGeometry y="40" width="420" height="40" as="geometry" />
        </mxCell>
        <mxCell id="JDcblKeP8Rod2Rn7jInz-235" style="shape=partialRectangle;html=1;whiteSpace=wrap;connectable=0;strokeColor=inherit;overflow=hidden;fillColor=none;top=0;left=0;bottom=0;right=0;pointerEvents=1;" vertex="1" parent="JDcblKeP8Rod2Rn7jInz-234">
          <mxGeometry width="140" height="40" as="geometry">
            <mxRectangle width="140" height="40" as="alternateBounds" />
          </mxGeometry>
        </mxCell>
        <mxCell id="JDcblKeP8Rod2Rn7jInz-236" style="shape=partialRectangle;html=1;whiteSpace=wrap;connectable=0;strokeColor=inherit;overflow=hidden;fillColor=none;top=0;left=0;bottom=0;right=0;pointerEvents=1;" vertex="1" parent="JDcblKeP8Rod2Rn7jInz-234">
          <mxGeometry x="140" width="140" height="40" as="geometry">
            <mxRectangle width="140" height="40" as="alternateBounds" />
          </mxGeometry>
        </mxCell>
        <mxCell id="JDcblKeP8Rod2Rn7jInz-237" style="shape=partialRectangle;html=1;whiteSpace=wrap;connectable=0;strokeColor=inherit;overflow=hidden;fillColor=none;top=0;left=0;bottom=0;right=0;pointerEvents=1;" vertex="1" parent="JDcblKeP8Rod2Rn7jInz-234">
          <mxGeometry x="280" width="140" height="40" as="geometry">
            <mxRectangle width="140" height="40" as="alternateBounds" />
          </mxGeometry>
        </mxCell>
        <mxCell id="JDcblKeP8Rod2Rn7jInz-238" value="" style="shape=table;startSize=0;container=1;collapsible=0;childLayout=tableLayout;" vertex="1" parent="kWqV8s7BQ7N3uEAR5WDc-402">
          <mxGeometry x="1645" y="510" width="420" height="80" as="geometry" />
        </mxCell>
        <mxCell id="JDcblKeP8Rod2Rn7jInz-239" value="" style="shape=tableRow;horizontal=0;startSize=0;swimlaneHead=0;swimlaneBody=0;strokeColor=inherit;top=0;left=0;bottom=0;right=0;collapsible=0;dropTarget=0;fillColor=none;points=[[0,0.5],[1,0.5]];portConstraint=eastwest;" vertex="1" parent="JDcblKeP8Rod2Rn7jInz-238">
          <mxGeometry width="420" height="40" as="geometry" />
        </mxCell>
        <mxCell id="JDcblKeP8Rod2Rn7jInz-240" value="&lt;font style=&quot;font-size: 20px;&quot;&gt;Destination&lt;/font&gt;" style="shape=partialRectangle;html=1;whiteSpace=wrap;connectable=0;strokeColor=inherit;overflow=hidden;fillColor=none;top=0;left=0;bottom=0;right=0;pointerEvents=1;" vertex="1" parent="JDcblKeP8Rod2Rn7jInz-239">
          <mxGeometry width="140" height="40" as="geometry">
            <mxRectangle width="140" height="40" as="alternateBounds" />
          </mxGeometry>
        </mxCell>
        <mxCell id="JDcblKeP8Rod2Rn7jInz-241" value="&lt;font style=&quot;font-size: 20px;&quot;&gt;Type&lt;/font&gt;" style="shape=partialRectangle;html=1;whiteSpace=wrap;connectable=0;strokeColor=inherit;overflow=hidden;fillColor=none;top=0;left=0;bottom=0;right=0;pointerEvents=1;" vertex="1" parent="JDcblKeP8Rod2Rn7jInz-239">
          <mxGeometry x="140" width="140" height="40" as="geometry">
            <mxRectangle width="140" height="40" as="alternateBounds" />
          </mxGeometry>
        </mxCell>
        <mxCell id="JDcblKeP8Rod2Rn7jInz-242" value="&lt;font style=&quot;font-size: 20px;&quot;&gt;Target&lt;/font&gt;" style="shape=partialRectangle;html=1;whiteSpace=wrap;connectable=0;strokeColor=inherit;overflow=hidden;fillColor=none;top=0;left=0;bottom=0;right=0;pointerEvents=1;" vertex="1" parent="JDcblKeP8Rod2Rn7jInz-239">
          <mxGeometry x="280" width="140" height="40" as="geometry">
            <mxRectangle width="140" height="40" as="alternateBounds" />
          </mxGeometry>
        </mxCell>
        <mxCell id="JDcblKeP8Rod2Rn7jInz-243" style="shape=tableRow;horizontal=0;startSize=0;swimlaneHead=0;swimlaneBody=0;strokeColor=inherit;top=0;left=0;bottom=0;right=0;collapsible=0;dropTarget=0;fillColor=none;points=[[0,0.5],[1,0.5]];portConstraint=eastwest;" vertex="1" parent="JDcblKeP8Rod2Rn7jInz-238">
          <mxGeometry y="40" width="420" height="40" as="geometry" />
        </mxCell>
        <mxCell id="JDcblKeP8Rod2Rn7jInz-244" style="shape=partialRectangle;html=1;whiteSpace=wrap;connectable=0;strokeColor=inherit;overflow=hidden;fillColor=none;top=0;left=0;bottom=0;right=0;pointerEvents=1;" vertex="1" parent="JDcblKeP8Rod2Rn7jInz-243">
          <mxGeometry width="140" height="40" as="geometry">
            <mxRectangle width="140" height="40" as="alternateBounds" />
          </mxGeometry>
        </mxCell>
        <mxCell id="JDcblKeP8Rod2Rn7jInz-245" style="shape=partialRectangle;html=1;whiteSpace=wrap;connectable=0;strokeColor=inherit;overflow=hidden;fillColor=none;top=0;left=0;bottom=0;right=0;pointerEvents=1;" vertex="1" parent="JDcblKeP8Rod2Rn7jInz-243">
          <mxGeometry x="140" width="140" height="40" as="geometry">
            <mxRectangle width="140" height="40" as="alternateBounds" />
          </mxGeometry>
        </mxCell>
        <mxCell id="JDcblKeP8Rod2Rn7jInz-246" style="shape=partialRectangle;html=1;whiteSpace=wrap;connectable=0;strokeColor=inherit;overflow=hidden;fillColor=none;top=0;left=0;bottom=0;right=0;pointerEvents=1;" vertex="1" parent="JDcblKeP8Rod2Rn7jInz-243">
          <mxGeometry x="280" width="140" height="40" as="geometry">
            <mxRectangle width="140" height="40" as="alternateBounds" />
          </mxGeometry>
        </mxCell>
        <mxCell id="kWqV8s7BQ7N3uEAR5WDc-803" value="Common Service" style="text;html=1;align=center;verticalAlign=middle;resizable=0;points=[];autosize=1;strokeColor=none;fillColor=none;fontStyle=1;fontSize=17;" parent="kWqV8s7BQ7N3uEAR5WDc-402" vertex="1">
          <mxGeometry x="1685" y="890" width="160" height="30" as="geometry" />
        </mxCell>
        <mxCell id="kWqV8s7BQ7N3uEAR5WDc-403" value="NETWORK ACCOUNT" style="text;html=1;align=center;verticalAlign=middle;resizable=0;points=[];autosize=1;strokeColor=none;fillColor=none;fontSize=19;fontStyle=1" parent="1" vertex="1">
          <mxGeometry x="250" y="-510" width="220" height="40" as="geometry" />
        </mxCell>
        <mxCell id="kWqV8s7BQ7N3uEAR5WDc-405" value="AWS Account" style="points=[[0,0],[0.25,0],[0.5,0],[0.75,0],[1,0],[1,0.25],[1,0.5],[1,0.75],[1,1],[0.75,1],[0.5,1],[0.25,1],[0,1],[0,0.75],[0,0.5],[0,0.25]];outlineConnect=0;gradientColor=none;html=1;whiteSpace=wrap;fontSize=12;fontStyle=0;container=1;pointerEvents=0;collapsible=0;recursiveResize=0;shape=mxgraph.aws4.group;grIcon=mxgraph.aws4.group_account;strokeColor=#CD2264;fillColor=none;verticalAlign=top;align=left;spacingLeft=30;fontColor=#CD2264;dashed=0;" parent="1" vertex="1">
          <mxGeometry x="-610" y="1190" width="1840" height="1440" as="geometry" />
        </mxCell>
        <mxCell id="kWqV8s7BQ7N3uEAR5WDc-484" value="VPC" style="points=[[0,0],[0.25,0],[0.5,0],[0.75,0],[1,0],[1,0.25],[1,0.5],[1,0.75],[1,1],[0.75,1],[0.5,1],[0.25,1],[0,1],[0,0.75],[0,0.5],[0,0.25]];outlineConnect=0;gradientColor=none;html=1;whiteSpace=wrap;fontSize=12;fontStyle=0;container=1;pointerEvents=0;collapsible=0;recursiveResize=0;shape=mxgraph.aws4.group;grIcon=mxgraph.aws4.group_vpc;strokeColor=#248814;fillColor=none;verticalAlign=top;align=left;spacingLeft=30;fontColor=#AAB7B8;dashed=0;" parent="kWqV8s7BQ7N3uEAR5WDc-405" vertex="1">
          <mxGeometry x="80" y="73" width="1700" height="617" as="geometry" />
        </mxCell>
        <mxCell id="JDcblKeP8Rod2Rn7jInz-89" value="Private subnet" style="points=[[0,0],[0.25,0],[0.5,0],[0.75,0],[1,0],[1,0.25],[1,0.5],[1,0.75],[1,1],[0.75,1],[0.5,1],[0.25,1],[0,1],[0,0.75],[0,0.5],[0,0.25]];outlineConnect=0;gradientColor=none;html=1;whiteSpace=wrap;fontSize=18;fontStyle=0;container=1;pointerEvents=0;collapsible=0;recursiveResize=0;shape=mxgraph.aws4.group;grIcon=mxgraph.aws4.group_security_group;grStroke=0;strokeColor=#147EBA;fillColor=#E6F2F8;verticalAlign=top;align=left;spacingLeft=30;fontColor=#147EBA;dashed=0;" vertex="1" parent="kWqV8s7BQ7N3uEAR5WDc-484">
          <mxGeometry x="105" y="358.5" width="360" height="230.25" as="geometry" />
        </mxCell>
        <mxCell id="JDcblKeP8Rod2Rn7jInz-90" value="TGW" style="text;html=1;align=center;verticalAlign=middle;resizable=0;points=[];autosize=1;strokeColor=none;fillColor=none;fontSize=24;" vertex="1" parent="kWqV8s7BQ7N3uEAR5WDc-484">
          <mxGeometry x="127" y="38.5" width="80" height="40" as="geometry" />
        </mxCell>
        <mxCell id="JDcblKeP8Rod2Rn7jInz-91" value="FW" style="text;html=1;align=center;verticalAlign=middle;resizable=0;points=[];autosize=1;strokeColor=none;fillColor=none;fontSize=24;" vertex="1" parent="kWqV8s7BQ7N3uEAR5WDc-484">
          <mxGeometry x="631" y="50" width="60" height="40" as="geometry" />
        </mxCell>
        <mxCell id="JDcblKeP8Rod2Rn7jInz-92" value="NATGW" style="text;html=1;align=center;verticalAlign=middle;resizable=0;points=[];autosize=1;strokeColor=none;fillColor=none;fontSize=24;" vertex="1" parent="kWqV8s7BQ7N3uEAR5WDc-484">
          <mxGeometry x="1105" y="50" width="110" height="40" as="geometry" />
        </mxCell>
        <mxCell id="JDcblKeP8Rod2Rn7jInz-93" value="Private subnet" style="points=[[0,0],[0.25,0],[0.5,0],[0.75,0],[1,0],[1,0.25],[1,0.5],[1,0.75],[1,1],[0.75,1],[0.5,1],[0.25,1],[0,1],[0,0.75],[0,0.5],[0,0.25]];outlineConnect=0;gradientColor=none;html=1;whiteSpace=wrap;fontSize=18;fontStyle=0;container=1;pointerEvents=0;collapsible=0;recursiveResize=0;shape=mxgraph.aws4.group;grIcon=mxgraph.aws4.group_security_group;grStroke=0;strokeColor=#147EBA;fillColor=#E6F2F8;verticalAlign=top;align=left;spacingLeft=30;fontColor=#147EBA;dashed=0;" vertex="1" parent="kWqV8s7BQ7N3uEAR5WDc-484">
          <mxGeometry x="105" y="100.5" width="360" height="228" as="geometry" />
        </mxCell>
        <mxCell id="JDcblKeP8Rod2Rn7jInz-94" value="Private subnet" style="points=[[0,0],[0.25,0],[0.5,0],[0.75,0],[1,0],[1,0.25],[1,0.5],[1,0.75],[1,1],[0.75,1],[0.5,1],[0.25,1],[0,1],[0,0.75],[0,0.5],[0,0.25]];outlineConnect=0;gradientColor=none;html=1;whiteSpace=wrap;fontSize=18;fontStyle=0;container=1;pointerEvents=0;collapsible=0;recursiveResize=0;shape=mxgraph.aws4.group;grIcon=mxgraph.aws4.group_security_group;grStroke=0;strokeColor=#147EBA;fillColor=#E6F2F8;verticalAlign=top;align=left;spacingLeft=30;fontColor=#147EBA;dashed=0;" vertex="1" parent="kWqV8s7BQ7N3uEAR5WDc-484">
          <mxGeometry x="555" y="358.5" width="360" height="230.25" as="geometry" />
        </mxCell>
        <mxCell id="JDcblKeP8Rod2Rn7jInz-95" value="Private subnet" style="points=[[0,0],[0.25,0],[0.5,0],[0.75,0],[1,0],[1,0.25],[1,0.5],[1,0.75],[1,1],[0.75,1],[0.5,1],[0.25,1],[0,1],[0,0.75],[0,0.5],[0,0.25]];outlineConnect=0;gradientColor=none;html=1;whiteSpace=wrap;fontSize=18;fontStyle=0;container=1;pointerEvents=0;collapsible=0;recursiveResize=0;shape=mxgraph.aws4.group;grIcon=mxgraph.aws4.group_security_group;grStroke=0;strokeColor=#147EBA;fillColor=#E6F2F8;verticalAlign=top;align=left;spacingLeft=30;fontColor=#147EBA;dashed=0;" vertex="1" parent="kWqV8s7BQ7N3uEAR5WDc-484">
          <mxGeometry x="555" y="100.5" width="360" height="228" as="geometry" />
        </mxCell>
        <mxCell id="JDcblKeP8Rod2Rn7jInz-96" value="Private subnet" style="points=[[0,0],[0.25,0],[0.5,0],[0.75,0],[1,0],[1,0.25],[1,0.5],[1,0.75],[1,1],[0.75,1],[0.5,1],[0.25,1],[0,1],[0,0.75],[0,0.5],[0,0.25]];outlineConnect=0;gradientColor=none;html=1;whiteSpace=wrap;fontSize=18;fontStyle=0;container=1;pointerEvents=0;collapsible=0;recursiveResize=0;shape=mxgraph.aws4.group;grIcon=mxgraph.aws4.group_security_group;grStroke=0;strokeColor=#147EBA;fillColor=#E6F2F8;verticalAlign=top;align=left;spacingLeft=30;fontColor=#147EBA;dashed=0;" vertex="1" parent="kWqV8s7BQ7N3uEAR5WDc-484">
          <mxGeometry x="1015" y="368.5" width="370" height="230.25" as="geometry" />
        </mxCell>
        <mxCell id="JDcblKeP8Rod2Rn7jInz-97" value="Private subnet" style="points=[[0,0],[0.25,0],[0.5,0],[0.75,0],[1,0],[1,0.25],[1,0.5],[1,0.75],[1,1],[0.75,1],[0.5,1],[0.25,1],[0,1],[0,0.75],[0,0.5],[0,0.25]];outlineConnect=0;gradientColor=none;html=1;whiteSpace=wrap;fontSize=18;fontStyle=0;container=1;pointerEvents=0;collapsible=0;recursiveResize=0;shape=mxgraph.aws4.group;grIcon=mxgraph.aws4.group_security_group;grStroke=0;strokeColor=#147EBA;fillColor=#E6F2F8;verticalAlign=top;align=left;spacingLeft=30;fontColor=#147EBA;dashed=0;" vertex="1" parent="kWqV8s7BQ7N3uEAR5WDc-484">
          <mxGeometry x="1015" y="110.5" width="373" height="228" as="geometry" />
        </mxCell>
        <mxCell id="kWqV8s7BQ7N3uEAR5WDc-601" value="NAT gateway" style="sketch=0;outlineConnect=0;fontColor=#232F3E;gradientColor=none;strokeColor=#232F3E;fillColor=#ffffff;dashed=0;verticalLabelPosition=bottom;verticalAlign=top;align=center;html=1;fontSize=12;fontStyle=0;aspect=fixed;shape=mxgraph.aws4.resourceIcon;resIcon=mxgraph.aws4.nat_gateway;" parent="JDcblKeP8Rod2Rn7jInz-97" vertex="1">
          <mxGeometry x="275" y="-70" width="98" height="98" as="geometry" />
        </mxCell>
        <mxCell id="kWqV8s7BQ7N3uEAR5WDc-486" value="Central Egress VPC" style="text;html=1;align=center;verticalAlign=middle;resizable=0;points=[];autosize=1;strokeColor=none;fillColor=none;fontStyle=1;fontSize=18;" parent="kWqV8s7BQ7N3uEAR5WDc-484" vertex="1">
          <mxGeometry x="-10" y="-53" width="190" height="40" as="geometry" />
        </mxCell>
        <mxCell id="kWqV8s7BQ7N3uEAR5WDc-485" value="VPC" style="points=[[0,0],[0.25,0],[0.5,0],[0.75,0],[1,0],[1,0.25],[1,0.5],[1,0.75],[1,1],[0.75,1],[0.5,1],[0.25,1],[0,1],[0,0.75],[0,0.5],[0,0.25]];outlineConnect=0;gradientColor=none;html=1;whiteSpace=wrap;fontSize=12;fontStyle=0;container=1;pointerEvents=0;collapsible=0;recursiveResize=0;shape=mxgraph.aws4.group;grIcon=mxgraph.aws4.group_vpc;strokeColor=#248814;fillColor=none;verticalAlign=top;align=left;spacingLeft=30;fontColor=#AAB7B8;dashed=0;" parent="kWqV8s7BQ7N3uEAR5WDc-405" vertex="1">
          <mxGeometry x="60" y="780" width="1730" height="640" as="geometry" />
        </mxCell>
        <mxCell id="JDcblKeP8Rod2Rn7jInz-142" value="Private subnet" style="points=[[0,0],[0.25,0],[0.5,0],[0.75,0],[1,0],[1,0.25],[1,0.5],[1,0.75],[1,1],[0.75,1],[0.5,1],[0.25,1],[0,1],[0,0.75],[0,0.5],[0,0.25]];outlineConnect=0;gradientColor=none;html=1;whiteSpace=wrap;fontSize=18;fontStyle=0;container=1;pointerEvents=0;collapsible=0;recursiveResize=0;shape=mxgraph.aws4.group;grIcon=mxgraph.aws4.group_security_group;grStroke=0;strokeColor=#147EBA;fillColor=#E6F2F8;verticalAlign=top;align=left;spacingLeft=30;fontColor=#147EBA;dashed=0;" vertex="1" parent="kWqV8s7BQ7N3uEAR5WDc-485">
          <mxGeometry x="130" y="380" width="360" height="230.25" as="geometry" />
        </mxCell>
        <mxCell id="JDcblKeP8Rod2Rn7jInz-143" value="TGW" style="text;html=1;align=center;verticalAlign=middle;resizable=0;points=[];autosize=1;strokeColor=none;fillColor=none;fontSize=24;" vertex="1" parent="kWqV8s7BQ7N3uEAR5WDc-485">
          <mxGeometry x="152" y="60" width="80" height="40" as="geometry" />
        </mxCell>
        <mxCell id="JDcblKeP8Rod2Rn7jInz-144" value="FW" style="text;html=1;align=center;verticalAlign=middle;resizable=0;points=[];autosize=1;strokeColor=none;fillColor=none;fontSize=24;" vertex="1" parent="kWqV8s7BQ7N3uEAR5WDc-485">
          <mxGeometry x="656" y="71.5" width="60" height="40" as="geometry" />
        </mxCell>
        <mxCell id="JDcblKeP8Rod2Rn7jInz-145" value="FW MAnagement" style="text;html=1;align=center;verticalAlign=middle;resizable=0;points=[];autosize=1;strokeColor=none;fillColor=none;fontSize=24;" vertex="1" parent="kWqV8s7BQ7N3uEAR5WDc-485">
          <mxGeometry x="1080" y="71.5" width="210" height="40" as="geometry" />
        </mxCell>
        <mxCell id="JDcblKeP8Rod2Rn7jInz-146" value="Private subnet" style="points=[[0,0],[0.25,0],[0.5,0],[0.75,0],[1,0],[1,0.25],[1,0.5],[1,0.75],[1,1],[0.75,1],[0.5,1],[0.25,1],[0,1],[0,0.75],[0,0.5],[0,0.25]];outlineConnect=0;gradientColor=none;html=1;whiteSpace=wrap;fontSize=18;fontStyle=0;container=1;pointerEvents=0;collapsible=0;recursiveResize=0;shape=mxgraph.aws4.group;grIcon=mxgraph.aws4.group_security_group;grStroke=0;strokeColor=#147EBA;fillColor=#E6F2F8;verticalAlign=top;align=left;spacingLeft=30;fontColor=#147EBA;dashed=0;" vertex="1" parent="kWqV8s7BQ7N3uEAR5WDc-485">
          <mxGeometry x="130" y="122" width="360" height="228" as="geometry" />
        </mxCell>
        <mxCell id="JDcblKeP8Rod2Rn7jInz-147" value="Private subnet" style="points=[[0,0],[0.25,0],[0.5,0],[0.75,0],[1,0],[1,0.25],[1,0.5],[1,0.75],[1,1],[0.75,1],[0.5,1],[0.25,1],[0,1],[0,0.75],[0,0.5],[0,0.25]];outlineConnect=0;gradientColor=none;html=1;whiteSpace=wrap;fontSize=18;fontStyle=0;container=1;pointerEvents=0;collapsible=0;recursiveResize=0;shape=mxgraph.aws4.group;grIcon=mxgraph.aws4.group_security_group;grStroke=0;strokeColor=#147EBA;fillColor=#E6F2F8;verticalAlign=top;align=left;spacingLeft=30;fontColor=#147EBA;dashed=0;" vertex="1" parent="kWqV8s7BQ7N3uEAR5WDc-485">
          <mxGeometry x="580" y="380" width="360" height="230.25" as="geometry" />
        </mxCell>
        <mxCell id="JDcblKeP8Rod2Rn7jInz-148" value="Private subnet" style="points=[[0,0],[0.25,0],[0.5,0],[0.75,0],[1,0],[1,0.25],[1,0.5],[1,0.75],[1,1],[0.75,1],[0.5,1],[0.25,1],[0,1],[0,0.75],[0,0.5],[0,0.25]];outlineConnect=0;gradientColor=none;html=1;whiteSpace=wrap;fontSize=18;fontStyle=0;container=1;pointerEvents=0;collapsible=0;recursiveResize=0;shape=mxgraph.aws4.group;grIcon=mxgraph.aws4.group_security_group;grStroke=0;strokeColor=#147EBA;fillColor=#E6F2F8;verticalAlign=top;align=left;spacingLeft=30;fontColor=#147EBA;dashed=0;" vertex="1" parent="kWqV8s7BQ7N3uEAR5WDc-485">
          <mxGeometry x="580" y="122" width="360" height="228" as="geometry" />
        </mxCell>
        <mxCell id="JDcblKeP8Rod2Rn7jInz-149" value="Private subnet" style="points=[[0,0],[0.25,0],[0.5,0],[0.75,0],[1,0],[1,0.25],[1,0.5],[1,0.75],[1,1],[0.75,1],[0.5,1],[0.25,1],[0,1],[0,0.75],[0,0.5],[0,0.25]];outlineConnect=0;gradientColor=none;html=1;whiteSpace=wrap;fontSize=18;fontStyle=0;container=1;pointerEvents=0;collapsible=0;recursiveResize=0;shape=mxgraph.aws4.group;grIcon=mxgraph.aws4.group_security_group;grStroke=0;strokeColor=#147EBA;fillColor=#E6F2F8;verticalAlign=top;align=left;spacingLeft=30;fontColor=#147EBA;dashed=0;" vertex="1" parent="kWqV8s7BQ7N3uEAR5WDc-485">
          <mxGeometry x="1040" y="390" width="370" height="230.25" as="geometry" />
        </mxCell>
        <mxCell id="JDcblKeP8Rod2Rn7jInz-157" value="Private subnet" style="points=[[0,0],[0.25,0],[0.5,0],[0.75,0],[1,0],[1,0.25],[1,0.5],[1,0.75],[1,1],[0.75,1],[0.5,1],[0.25,1],[0,1],[0,0.75],[0,0.5],[0,0.25]];outlineConnect=0;gradientColor=none;html=1;whiteSpace=wrap;fontSize=18;fontStyle=0;container=1;pointerEvents=0;collapsible=0;recursiveResize=0;shape=mxgraph.aws4.group;grIcon=mxgraph.aws4.group_security_group;grStroke=0;strokeColor=#147EBA;fillColor=#E6F2F8;verticalAlign=top;align=left;spacingLeft=30;fontColor=#147EBA;dashed=0;" vertex="1" parent="kWqV8s7BQ7N3uEAR5WDc-485">
          <mxGeometry x="1040" y="132" width="360" height="228" as="geometry" />
        </mxCell>
        <mxCell id="JDcblKeP8Rod2Rn7jInz-158" value="" style="shape=table;startSize=0;container=1;collapsible=0;childLayout=tableLayout;" vertex="1" parent="kWqV8s7BQ7N3uEAR5WDc-485">
          <mxGeometry x="95" y="178.5" width="380" height="130" as="geometry" />
        </mxCell>
        <mxCell id="JDcblKeP8Rod2Rn7jInz-159" value="" style="shape=tableRow;horizontal=0;startSize=0;swimlaneHead=0;swimlaneBody=0;strokeColor=inherit;top=0;left=0;bottom=0;right=0;collapsible=0;dropTarget=0;fillColor=none;points=[[0,0.5],[1,0.5]];portConstraint=eastwest;" vertex="1" parent="JDcblKeP8Rod2Rn7jInz-158">
          <mxGeometry width="380" height="65" as="geometry" />
        </mxCell>
        <mxCell id="JDcblKeP8Rod2Rn7jInz-160" value="&lt;font style=&quot;font-size: 22px;&quot;&gt;Destination&lt;/font&gt;" style="shape=partialRectangle;html=1;whiteSpace=wrap;connectable=0;strokeColor=inherit;overflow=hidden;fillColor=none;top=0;left=0;bottom=0;right=0;pointerEvents=1;" vertex="1" parent="JDcblKeP8Rod2Rn7jInz-159">
          <mxGeometry width="190" height="65" as="geometry">
            <mxRectangle width="190" height="65" as="alternateBounds" />
          </mxGeometry>
        </mxCell>
        <mxCell id="JDcblKeP8Rod2Rn7jInz-161" value="&lt;font style=&quot;font-size: 22px;&quot;&gt;Target&lt;/font&gt;" style="shape=partialRectangle;html=1;whiteSpace=wrap;connectable=0;strokeColor=inherit;overflow=hidden;fillColor=none;top=0;left=0;bottom=0;right=0;pointerEvents=1;" vertex="1" parent="JDcblKeP8Rod2Rn7jInz-159">
          <mxGeometry x="190" width="190" height="65" as="geometry">
            <mxRectangle width="190" height="65" as="alternateBounds" />
          </mxGeometry>
        </mxCell>
        <mxCell id="JDcblKeP8Rod2Rn7jInz-162" style="shape=tableRow;horizontal=0;startSize=0;swimlaneHead=0;swimlaneBody=0;strokeColor=inherit;top=0;left=0;bottom=0;right=0;collapsible=0;dropTarget=0;fillColor=none;points=[[0,0.5],[1,0.5]];portConstraint=eastwest;" vertex="1" parent="JDcblKeP8Rod2Rn7jInz-158">
          <mxGeometry y="65" width="380" height="65" as="geometry" />
        </mxCell>
        <mxCell id="JDcblKeP8Rod2Rn7jInz-163" style="shape=partialRectangle;html=1;whiteSpace=wrap;connectable=0;strokeColor=inherit;overflow=hidden;fillColor=none;top=0;left=0;bottom=0;right=0;pointerEvents=1;" vertex="1" parent="JDcblKeP8Rod2Rn7jInz-162">
          <mxGeometry width="190" height="65" as="geometry">
            <mxRectangle width="190" height="65" as="alternateBounds" />
          </mxGeometry>
        </mxCell>
        <mxCell id="JDcblKeP8Rod2Rn7jInz-164" style="shape=partialRectangle;html=1;whiteSpace=wrap;connectable=0;strokeColor=inherit;overflow=hidden;fillColor=none;top=0;left=0;bottom=0;right=0;pointerEvents=1;" vertex="1" parent="JDcblKeP8Rod2Rn7jInz-162">
          <mxGeometry x="190" width="190" height="65" as="geometry">
            <mxRectangle width="190" height="65" as="alternateBounds" />
          </mxGeometry>
        </mxCell>
        <mxCell id="JDcblKeP8Rod2Rn7jInz-165" value="" style="shape=table;startSize=0;container=1;collapsible=0;childLayout=tableLayout;" vertex="1" parent="kWqV8s7BQ7N3uEAR5WDc-485">
          <mxGeometry x="575" y="178.5" width="380" height="130" as="geometry" />
        </mxCell>
        <mxCell id="JDcblKeP8Rod2Rn7jInz-166" value="" style="shape=tableRow;horizontal=0;startSize=0;swimlaneHead=0;swimlaneBody=0;strokeColor=inherit;top=0;left=0;bottom=0;right=0;collapsible=0;dropTarget=0;fillColor=none;points=[[0,0.5],[1,0.5]];portConstraint=eastwest;" vertex="1" parent="JDcblKeP8Rod2Rn7jInz-165">
          <mxGeometry width="380" height="65" as="geometry" />
        </mxCell>
        <mxCell id="JDcblKeP8Rod2Rn7jInz-167" value="&lt;font style=&quot;font-size: 22px;&quot;&gt;Destination&lt;/font&gt;" style="shape=partialRectangle;html=1;whiteSpace=wrap;connectable=0;strokeColor=inherit;overflow=hidden;fillColor=none;top=0;left=0;bottom=0;right=0;pointerEvents=1;" vertex="1" parent="JDcblKeP8Rod2Rn7jInz-166">
          <mxGeometry width="190" height="65" as="geometry">
            <mxRectangle width="190" height="65" as="alternateBounds" />
          </mxGeometry>
        </mxCell>
        <mxCell id="JDcblKeP8Rod2Rn7jInz-168" value="&lt;font style=&quot;font-size: 22px;&quot;&gt;Target&lt;/font&gt;" style="shape=partialRectangle;html=1;whiteSpace=wrap;connectable=0;strokeColor=inherit;overflow=hidden;fillColor=none;top=0;left=0;bottom=0;right=0;pointerEvents=1;" vertex="1" parent="JDcblKeP8Rod2Rn7jInz-166">
          <mxGeometry x="190" width="190" height="65" as="geometry">
            <mxRectangle width="190" height="65" as="alternateBounds" />
          </mxGeometry>
        </mxCell>
        <mxCell id="JDcblKeP8Rod2Rn7jInz-169" style="shape=tableRow;horizontal=0;startSize=0;swimlaneHead=0;swimlaneBody=0;strokeColor=inherit;top=0;left=0;bottom=0;right=0;collapsible=0;dropTarget=0;fillColor=none;points=[[0,0.5],[1,0.5]];portConstraint=eastwest;" vertex="1" parent="JDcblKeP8Rod2Rn7jInz-165">
          <mxGeometry y="65" width="380" height="65" as="geometry" />
        </mxCell>
        <mxCell id="JDcblKeP8Rod2Rn7jInz-170" style="shape=partialRectangle;html=1;whiteSpace=wrap;connectable=0;strokeColor=inherit;overflow=hidden;fillColor=none;top=0;left=0;bottom=0;right=0;pointerEvents=1;" vertex="1" parent="JDcblKeP8Rod2Rn7jInz-169">
          <mxGeometry width="190" height="65" as="geometry">
            <mxRectangle width="190" height="65" as="alternateBounds" />
          </mxGeometry>
        </mxCell>
        <mxCell id="JDcblKeP8Rod2Rn7jInz-171" style="shape=partialRectangle;html=1;whiteSpace=wrap;connectable=0;strokeColor=inherit;overflow=hidden;fillColor=none;top=0;left=0;bottom=0;right=0;pointerEvents=1;" vertex="1" parent="JDcblKeP8Rod2Rn7jInz-169">
          <mxGeometry x="190" width="190" height="65" as="geometry">
            <mxRectangle width="190" height="65" as="alternateBounds" />
          </mxGeometry>
        </mxCell>
        <mxCell id="JDcblKeP8Rod2Rn7jInz-172" value="" style="shape=table;startSize=0;container=1;collapsible=0;childLayout=tableLayout;" vertex="1" parent="kWqV8s7BQ7N3uEAR5WDc-485">
          <mxGeometry x="1045" y="188.5" width="380" height="130" as="geometry" />
        </mxCell>
        <mxCell id="JDcblKeP8Rod2Rn7jInz-173" value="" style="shape=tableRow;horizontal=0;startSize=0;swimlaneHead=0;swimlaneBody=0;strokeColor=inherit;top=0;left=0;bottom=0;right=0;collapsible=0;dropTarget=0;fillColor=none;points=[[0,0.5],[1,0.5]];portConstraint=eastwest;" vertex="1" parent="JDcblKeP8Rod2Rn7jInz-172">
          <mxGeometry width="380" height="65" as="geometry" />
        </mxCell>
        <mxCell id="JDcblKeP8Rod2Rn7jInz-174" value="&lt;font style=&quot;font-size: 22px;&quot;&gt;Destination&lt;/font&gt;" style="shape=partialRectangle;html=1;whiteSpace=wrap;connectable=0;strokeColor=inherit;overflow=hidden;fillColor=none;top=0;left=0;bottom=0;right=0;pointerEvents=1;" vertex="1" parent="JDcblKeP8Rod2Rn7jInz-173">
          <mxGeometry width="190" height="65" as="geometry">
            <mxRectangle width="190" height="65" as="alternateBounds" />
          </mxGeometry>
        </mxCell>
        <mxCell id="JDcblKeP8Rod2Rn7jInz-175" value="&lt;font style=&quot;font-size: 22px;&quot;&gt;Target&lt;/font&gt;" style="shape=partialRectangle;html=1;whiteSpace=wrap;connectable=0;strokeColor=inherit;overflow=hidden;fillColor=none;top=0;left=0;bottom=0;right=0;pointerEvents=1;" vertex="1" parent="JDcblKeP8Rod2Rn7jInz-173">
          <mxGeometry x="190" width="190" height="65" as="geometry">
            <mxRectangle width="190" height="65" as="alternateBounds" />
          </mxGeometry>
        </mxCell>
        <mxCell id="JDcblKeP8Rod2Rn7jInz-176" style="shape=tableRow;horizontal=0;startSize=0;swimlaneHead=0;swimlaneBody=0;strokeColor=inherit;top=0;left=0;bottom=0;right=0;collapsible=0;dropTarget=0;fillColor=none;points=[[0,0.5],[1,0.5]];portConstraint=eastwest;" vertex="1" parent="JDcblKeP8Rod2Rn7jInz-172">
          <mxGeometry y="65" width="380" height="65" as="geometry" />
        </mxCell>
        <mxCell id="JDcblKeP8Rod2Rn7jInz-177" style="shape=partialRectangle;html=1;whiteSpace=wrap;connectable=0;strokeColor=inherit;overflow=hidden;fillColor=none;top=0;left=0;bottom=0;right=0;pointerEvents=1;" vertex="1" parent="JDcblKeP8Rod2Rn7jInz-176">
          <mxGeometry width="190" height="65" as="geometry">
            <mxRectangle width="190" height="65" as="alternateBounds" />
          </mxGeometry>
        </mxCell>
        <mxCell id="JDcblKeP8Rod2Rn7jInz-178" style="shape=partialRectangle;html=1;whiteSpace=wrap;connectable=0;strokeColor=inherit;overflow=hidden;fillColor=none;top=0;left=0;bottom=0;right=0;pointerEvents=1;" vertex="1" parent="JDcblKeP8Rod2Rn7jInz-176">
          <mxGeometry x="190" width="190" height="65" as="geometry">
            <mxRectangle width="190" height="65" as="alternateBounds" />
          </mxGeometry>
        </mxCell>
        <mxCell id="kWqV8s7BQ7N3uEAR5WDc-487" value="Central Ingress VPC" style="text;html=1;align=center;verticalAlign=middle;resizable=0;points=[];autosize=1;strokeColor=none;fillColor=none;fontStyle=1;fontSize=18;" parent="kWqV8s7BQ7N3uEAR5WDc-405" vertex="1">
          <mxGeometry x="60" y="730" width="200" height="40" as="geometry" />
        </mxCell>
        <mxCell id="JDcblKeP8Rod2Rn7jInz-13" value="10.3.0./16" style="text;html=1;align=center;verticalAlign=middle;resizable=0;points=[];autosize=1;strokeColor=none;fillColor=none;fontSize=36;" vertex="1" parent="kWqV8s7BQ7N3uEAR5WDc-405">
          <mxGeometry x="785" y="13" width="180" height="60" as="geometry" />
        </mxCell>
        <mxCell id="JDcblKeP8Rod2Rn7jInz-14" value="10.4.0./16" style="text;html=1;align=center;verticalAlign=middle;resizable=0;points=[];autosize=1;strokeColor=none;fillColor=none;fontSize=36;" vertex="1" parent="kWqV8s7BQ7N3uEAR5WDc-405">
          <mxGeometry x="1600" y="710" width="180" height="60" as="geometry" />
        </mxCell>
        <mxCell id="kWqV8s7BQ7N3uEAR5WDc-602" value="Internet&#xa;gateway" style="sketch=0;outlineConnect=0;fontColor=#232F3E;gradientColor=none;strokeColor=#232F3E;fillColor=#ffffff;dashed=0;verticalLabelPosition=bottom;verticalAlign=top;align=center;html=1;fontSize=12;fontStyle=0;aspect=fixed;shape=mxgraph.aws4.resourceIcon;resIcon=mxgraph.aws4.internet_gateway;" parent="kWqV8s7BQ7N3uEAR5WDc-405" vertex="1">
          <mxGeometry x="30" y="140" width="110" height="110" as="geometry" />
        </mxCell>
        <mxCell id="kWqV8s7BQ7N3uEAR5WDc-408" value="INSPECTION ACCOUNT" style="text;html=1;align=center;verticalAlign=middle;resizable=0;points=[];autosize=1;strokeColor=none;fillColor=none;fontSize=19;fontStyle=1" parent="1" vertex="1">
          <mxGeometry x="125" y="1140" width="240" height="40" as="geometry" />
        </mxCell>
        <mxCell id="kWqV8s7BQ7N3uEAR5WDc-508" value="AWS Account" style="points=[[0,0],[0.25,0],[0.5,0],[0.75,0],[1,0],[1,0.25],[1,0.5],[1,0.75],[1,1],[0.75,1],[0.5,1],[0.25,1],[0,1],[0,0.75],[0,0.5],[0,0.25]];outlineConnect=0;gradientColor=none;html=1;whiteSpace=wrap;fontSize=12;fontStyle=0;container=1;pointerEvents=0;collapsible=0;recursiveResize=0;shape=mxgraph.aws4.group;grIcon=mxgraph.aws4.group_account;strokeColor=#CD2264;fillColor=none;verticalAlign=top;align=left;spacingLeft=30;fontColor=#CD2264;dashed=0;" parent="1" vertex="1">
          <mxGeometry x="1750" y="50" width="1040" height="580" as="geometry" />
        </mxCell>
        <mxCell id="kWqV8s7BQ7N3uEAR5WDc-509" value="VPC" style="points=[[0,0],[0.25,0],[0.5,0],[0.75,0],[1,0],[1,0.25],[1,0.5],[1,0.75],[1,1],[0.75,1],[0.5,1],[0.25,1],[0,1],[0,0.75],[0,0.5],[0,0.25]];outlineConnect=0;gradientColor=none;html=1;whiteSpace=wrap;fontSize=12;fontStyle=0;container=1;pointerEvents=0;collapsible=0;recursiveResize=0;shape=mxgraph.aws4.group;grIcon=mxgraph.aws4.group_vpc;strokeColor=#248814;fillColor=none;verticalAlign=top;align=left;spacingLeft=30;fontColor=#AAB7B8;dashed=0;" parent="kWqV8s7BQ7N3uEAR5WDc-508" vertex="1">
          <mxGeometry x="80" y="73" width="860" height="427" as="geometry" />
        </mxCell>
        <mxCell id="kWqV8s7BQ7N3uEAR5WDc-572" value="Private subnet" style="points=[[0,0],[0.25,0],[0.5,0],[0.75,0],[1,0],[1,0.25],[1,0.5],[1,0.75],[1,1],[0.75,1],[0.5,1],[0.25,1],[0,1],[0,0.75],[0,0.5],[0,0.25]];outlineConnect=0;gradientColor=none;html=1;whiteSpace=wrap;fontSize=12;fontStyle=0;container=1;pointerEvents=0;collapsible=0;recursiveResize=0;shape=mxgraph.aws4.group;grIcon=mxgraph.aws4.group_security_group;grStroke=0;strokeColor=#147EBA;fillColor=#E6F2F8;verticalAlign=top;align=left;spacingLeft=30;fontColor=#147EBA;dashed=0;" parent="kWqV8s7BQ7N3uEAR5WDc-509" vertex="1">
          <mxGeometry x="115" y="84" width="125" height="93" as="geometry" />
        </mxCell>
        <mxCell id="kWqV8s7BQ7N3uEAR5WDc-573" value="Private subnet" style="points=[[0,0],[0.25,0],[0.5,0],[0.75,0],[1,0],[1,0.25],[1,0.5],[1,0.75],[1,1],[0.75,1],[0.5,1],[0.25,1],[0,1],[0,0.75],[0,0.5],[0,0.25]];outlineConnect=0;gradientColor=none;html=1;whiteSpace=wrap;fontSize=12;fontStyle=0;container=1;pointerEvents=0;collapsible=0;recursiveResize=0;shape=mxgraph.aws4.group;grIcon=mxgraph.aws4.group_security_group;grStroke=0;strokeColor=#147EBA;fillColor=#E6F2F8;verticalAlign=top;align=left;spacingLeft=30;fontColor=#147EBA;dashed=0;" parent="kWqV8s7BQ7N3uEAR5WDc-509" vertex="1">
          <mxGeometry x="115" y="284" width="125" height="93" as="geometry" />
        </mxCell>
        <mxCell id="kWqV8s7BQ7N3uEAR5WDc-574" value="Private subnet" style="points=[[0,0],[0.25,0],[0.5,0],[0.75,0],[1,0],[1,0.25],[1,0.5],[1,0.75],[1,1],[0.75,1],[0.5,1],[0.25,1],[0,1],[0,0.75],[0,0.5],[0,0.25]];outlineConnect=0;gradientColor=none;html=1;whiteSpace=wrap;fontSize=12;fontStyle=0;container=1;pointerEvents=0;collapsible=0;recursiveResize=0;shape=mxgraph.aws4.group;grIcon=mxgraph.aws4.group_security_group;grStroke=0;strokeColor=#147EBA;fillColor=#E6F2F8;verticalAlign=top;align=left;spacingLeft=30;fontColor=#147EBA;dashed=0;" parent="kWqV8s7BQ7N3uEAR5WDc-509" vertex="1">
          <mxGeometry x="385" y="84" width="125" height="93" as="geometry" />
        </mxCell>
        <mxCell id="kWqV8s7BQ7N3uEAR5WDc-575" value="Private subnet" style="points=[[0,0],[0.25,0],[0.5,0],[0.75,0],[1,0],[1,0.25],[1,0.5],[1,0.75],[1,1],[0.75,1],[0.5,1],[0.25,1],[0,1],[0,0.75],[0,0.5],[0,0.25]];outlineConnect=0;gradientColor=none;html=1;whiteSpace=wrap;fontSize=12;fontStyle=0;container=1;pointerEvents=0;collapsible=0;recursiveResize=0;shape=mxgraph.aws4.group;grIcon=mxgraph.aws4.group_security_group;grStroke=0;strokeColor=#147EBA;fillColor=#E6F2F8;verticalAlign=top;align=left;spacingLeft=30;fontColor=#147EBA;dashed=0;" parent="kWqV8s7BQ7N3uEAR5WDc-509" vertex="1">
          <mxGeometry x="385" y="284" width="125" height="93" as="geometry" />
        </mxCell>
        <mxCell id="kWqV8s7BQ7N3uEAR5WDc-576" value="Private subnet" style="points=[[0,0],[0.25,0],[0.5,0],[0.75,0],[1,0],[1,0.25],[1,0.5],[1,0.75],[1,1],[0.75,1],[0.5,1],[0.25,1],[0,1],[0,0.75],[0,0.5],[0,0.25]];outlineConnect=0;gradientColor=none;html=1;whiteSpace=wrap;fontSize=12;fontStyle=0;container=1;pointerEvents=0;collapsible=0;recursiveResize=0;shape=mxgraph.aws4.group;grIcon=mxgraph.aws4.group_security_group;grStroke=0;strokeColor=#147EBA;fillColor=#E6F2F8;verticalAlign=top;align=left;spacingLeft=30;fontColor=#147EBA;dashed=0;" parent="kWqV8s7BQ7N3uEAR5WDc-509" vertex="1">
          <mxGeometry x="665" y="84" width="125" height="93" as="geometry" />
        </mxCell>
        <mxCell id="kWqV8s7BQ7N3uEAR5WDc-577" value="Private subnet" style="points=[[0,0],[0.25,0],[0.5,0],[0.75,0],[1,0],[1,0.25],[1,0.5],[1,0.75],[1,1],[0.75,1],[0.5,1],[0.25,1],[0,1],[0,0.75],[0,0.5],[0,0.25]];outlineConnect=0;gradientColor=none;html=1;whiteSpace=wrap;fontSize=12;fontStyle=0;container=1;pointerEvents=0;collapsible=0;recursiveResize=0;shape=mxgraph.aws4.group;grIcon=mxgraph.aws4.group_security_group;grStroke=0;strokeColor=#147EBA;fillColor=#E6F2F8;verticalAlign=top;align=left;spacingLeft=30;fontColor=#147EBA;dashed=0;" parent="kWqV8s7BQ7N3uEAR5WDc-509" vertex="1">
          <mxGeometry x="665" y="284" width="125" height="93" as="geometry" />
        </mxCell>
        <mxCell id="kWqV8s7BQ7N3uEAR5WDc-578" value="FW" style="text;html=1;align=center;verticalAlign=middle;resizable=0;points=[];autosize=1;strokeColor=none;fillColor=none;" parent="kWqV8s7BQ7N3uEAR5WDc-509" vertex="1">
          <mxGeometry x="427.5" y="44" width="40" height="30" as="geometry" />
        </mxCell>
        <mxCell id="kWqV8s7BQ7N3uEAR5WDc-579" value="Natgw" style="text;html=1;align=center;verticalAlign=middle;resizable=0;points=[];autosize=1;strokeColor=none;fillColor=none;" parent="kWqV8s7BQ7N3uEAR5WDc-509" vertex="1">
          <mxGeometry x="710" y="44" width="60" height="30" as="geometry" />
        </mxCell>
        <mxCell id="kWqV8s7BQ7N3uEAR5WDc-580" value="TGW" style="text;html=1;align=center;verticalAlign=middle;resizable=0;points=[];autosize=1;strokeColor=none;fillColor=none;" parent="kWqV8s7BQ7N3uEAR5WDc-509" vertex="1">
          <mxGeometry x="140" y="42" width="50" height="30" as="geometry" />
        </mxCell>
        <mxCell id="kWqV8s7BQ7N3uEAR5WDc-512" value="Central Egress VPC" style="text;html=1;align=center;verticalAlign=middle;resizable=0;points=[];autosize=1;strokeColor=none;fillColor=none;fontStyle=1;fontSize=16;" parent="kWqV8s7BQ7N3uEAR5WDc-508" vertex="1">
          <mxGeometry x="60" y="43" width="170" height="30" as="geometry" />
        </mxCell>
        <mxCell id="kWqV8s7BQ7N3uEAR5WDc-513" value="Shared Accounts" style="text;html=1;align=center;verticalAlign=middle;resizable=0;points=[];autosize=1;strokeColor=none;fillColor=none;fontSize=19;fontStyle=1" parent="1" vertex="1">
          <mxGeometry x="2180" width="180" height="40" as="geometry" />
        </mxCell>
        <mxCell id="kWqV8s7BQ7N3uEAR5WDc-514" value="AWS Account" style="points=[[0,0],[0.25,0],[0.5,0],[0.75,0],[1,0],[1,0.25],[1,0.5],[1,0.75],[1,1],[0.75,1],[0.5,1],[0.25,1],[0,1],[0,0.75],[0,0.5],[0,0.25]];outlineConnect=0;gradientColor=none;html=1;whiteSpace=wrap;fontSize=12;fontStyle=0;container=1;pointerEvents=0;collapsible=0;recursiveResize=0;shape=mxgraph.aws4.group;grIcon=mxgraph.aws4.group_account;strokeColor=#CD2264;fillColor=none;verticalAlign=top;align=left;spacingLeft=30;fontColor=#CD2264;dashed=0;" parent="1" vertex="1">
          <mxGeometry x="-2173" y="1021" width="1293" height="669" as="geometry" />
        </mxCell>
        <mxCell id="kWqV8s7BQ7N3uEAR5WDc-515" value="VPC" style="points=[[0,0],[0.25,0],[0.5,0],[0.75,0],[1,0],[1,0.25],[1,0.5],[1,0.75],[1,1],[0.75,1],[0.5,1],[0.25,1],[0,1],[0,0.75],[0,0.5],[0,0.25]];outlineConnect=0;gradientColor=none;html=1;whiteSpace=wrap;fontSize=12;fontStyle=0;container=1;pointerEvents=0;collapsible=0;recursiveResize=0;shape=mxgraph.aws4.group;grIcon=mxgraph.aws4.group_vpc;strokeColor=#248814;fillColor=none;verticalAlign=top;align=left;spacingLeft=30;fontColor=#AAB7B8;dashed=0;" parent="kWqV8s7BQ7N3uEAR5WDc-514" vertex="1">
          <mxGeometry x="80" y="73" width="1170" height="537" as="geometry" />
        </mxCell>
        <mxCell id="kWqV8s7BQ7N3uEAR5WDc-590" value="Private subnet" style="points=[[0,0],[0.25,0],[0.5,0],[0.75,0],[1,0],[1,0.25],[1,0.5],[1,0.75],[1,1],[0.75,1],[0.5,1],[0.25,1],[0,1],[0,0.75],[0,0.5],[0,0.25]];outlineConnect=0;gradientColor=none;html=1;whiteSpace=wrap;fontSize=18;fontStyle=0;container=1;pointerEvents=0;collapsible=0;recursiveResize=0;shape=mxgraph.aws4.group;grIcon=mxgraph.aws4.group_security_group;grStroke=0;strokeColor=#147EBA;fillColor=#E6F2F8;verticalAlign=top;align=left;spacingLeft=30;fontColor=#147EBA;dashed=0;" parent="kWqV8s7BQ7N3uEAR5WDc-515" vertex="1">
          <mxGeometry x="63" y="314.25" width="205" height="138.5" as="geometry" />
        </mxCell>
        <mxCell id="kWqV8s7BQ7N3uEAR5WDc-598" value="TGW" style="text;html=1;align=center;verticalAlign=middle;resizable=0;points=[];autosize=1;strokeColor=none;fillColor=none;fontSize=24;" parent="kWqV8s7BQ7N3uEAR5WDc-515" vertex="1">
          <mxGeometry x="65" y="44.5" width="80" height="40" as="geometry" />
        </mxCell>
        <mxCell id="JDcblKeP8Rod2Rn7jInz-30" value="Private subnet" style="points=[[0,0],[0.25,0],[0.5,0],[0.75,0],[1,0],[1,0.25],[1,0.5],[1,0.75],[1,1],[0.75,1],[0.5,1],[0.25,1],[0,1],[0,0.75],[0,0.5],[0,0.25]];outlineConnect=0;gradientColor=none;html=1;whiteSpace=wrap;fontSize=18;fontStyle=0;container=1;pointerEvents=0;collapsible=0;recursiveResize=0;shape=mxgraph.aws4.group;grIcon=mxgraph.aws4.group_security_group;grStroke=0;strokeColor=#147EBA;fillColor=#E6F2F8;verticalAlign=top;align=left;spacingLeft=30;fontColor=#147EBA;dashed=0;" vertex="1" parent="kWqV8s7BQ7N3uEAR5WDc-515">
          <mxGeometry x="373" y="325.75" width="205" height="138.5" as="geometry" />
        </mxCell>
        <mxCell id="JDcblKeP8Rod2Rn7jInz-31" value="LB" style="text;html=1;align=center;verticalAlign=middle;resizable=0;points=[];autosize=1;strokeColor=none;fillColor=none;fontSize=24;" vertex="1" parent="kWqV8s7BQ7N3uEAR5WDc-515">
          <mxGeometry x="390" y="56" width="50" height="40" as="geometry" />
        </mxCell>
        <mxCell id="JDcblKeP8Rod2Rn7jInz-32" value="Private subnet" style="points=[[0,0],[0.25,0],[0.5,0],[0.75,0],[1,0],[1,0.25],[1,0.5],[1,0.75],[1,1],[0.75,1],[0.5,1],[0.25,1],[0,1],[0,0.75],[0,0.5],[0,0.25]];outlineConnect=0;gradientColor=none;html=1;whiteSpace=wrap;fontSize=18;fontStyle=0;container=1;pointerEvents=0;collapsible=0;recursiveResize=0;shape=mxgraph.aws4.group;grIcon=mxgraph.aws4.group_security_group;grStroke=0;strokeColor=#147EBA;fillColor=#E6F2F8;verticalAlign=top;align=left;spacingLeft=30;fontColor=#147EBA;dashed=0;" vertex="1" parent="kWqV8s7BQ7N3uEAR5WDc-515">
          <mxGeometry x="375" y="113" width="205" height="138.5" as="geometry" />
        </mxCell>
        <mxCell id="JDcblKeP8Rod2Rn7jInz-37" value="Private subnet" style="points=[[0,0],[0.25,0],[0.5,0],[0.75,0],[1,0],[1,0.25],[1,0.5],[1,0.75],[1,1],[0.75,1],[0.5,1],[0.25,1],[0,1],[0,0.75],[0,0.5],[0,0.25]];outlineConnect=0;gradientColor=none;html=1;whiteSpace=wrap;fontSize=18;fontStyle=0;container=1;pointerEvents=0;collapsible=0;recursiveResize=0;shape=mxgraph.aws4.group;grIcon=mxgraph.aws4.group_security_group;grStroke=0;strokeColor=#147EBA;fillColor=#E6F2F8;verticalAlign=top;align=left;spacingLeft=30;fontColor=#147EBA;dashed=0;" vertex="1" parent="kWqV8s7BQ7N3uEAR5WDc-515">
          <mxGeometry x="683" y="325.75" width="205" height="138.5" as="geometry" />
        </mxCell>
        <mxCell id="JDcblKeP8Rod2Rn7jInz-38" value="DB" style="text;html=1;align=center;verticalAlign=middle;resizable=0;points=[];autosize=1;strokeColor=none;fillColor=none;fontSize=24;" vertex="1" parent="kWqV8s7BQ7N3uEAR5WDc-515">
          <mxGeometry x="695" y="56" width="60" height="40" as="geometry" />
        </mxCell>
        <mxCell id="JDcblKeP8Rod2Rn7jInz-39" value="Private subnet" style="points=[[0,0],[0.25,0],[0.5,0],[0.75,0],[1,0],[1,0.25],[1,0.5],[1,0.75],[1,1],[0.75,1],[0.5,1],[0.25,1],[0,1],[0,0.75],[0,0.5],[0,0.25]];outlineConnect=0;gradientColor=none;html=1;whiteSpace=wrap;fontSize=18;fontStyle=0;container=1;pointerEvents=0;collapsible=0;recursiveResize=0;shape=mxgraph.aws4.group;grIcon=mxgraph.aws4.group_security_group;grStroke=0;strokeColor=#147EBA;fillColor=#E6F2F8;verticalAlign=top;align=left;spacingLeft=30;fontColor=#147EBA;dashed=0;" vertex="1" parent="kWqV8s7BQ7N3uEAR5WDc-515">
          <mxGeometry x="685" y="113" width="205" height="138.5" as="geometry" />
        </mxCell>
        <mxCell id="JDcblKeP8Rod2Rn7jInz-40" value="Private subnet" style="points=[[0,0],[0.25,0],[0.5,0],[0.75,0],[1,0],[1,0.25],[1,0.5],[1,0.75],[1,1],[0.75,1],[0.5,1],[0.25,1],[0,1],[0,0.75],[0,0.5],[0,0.25]];outlineConnect=0;gradientColor=none;html=1;whiteSpace=wrap;fontSize=18;fontStyle=0;container=1;pointerEvents=0;collapsible=0;recursiveResize=0;shape=mxgraph.aws4.group;grIcon=mxgraph.aws4.group_security_group;grStroke=0;strokeColor=#147EBA;fillColor=#E6F2F8;verticalAlign=top;align=left;spacingLeft=30;fontColor=#147EBA;dashed=0;" vertex="1" parent="kWqV8s7BQ7N3uEAR5WDc-515">
          <mxGeometry x="943" y="325.75" width="205" height="138.5" as="geometry" />
        </mxCell>
        <mxCell id="JDcblKeP8Rod2Rn7jInz-41" value="APP" style="text;html=1;align=center;verticalAlign=middle;resizable=0;points=[];autosize=1;strokeColor=none;fillColor=none;fontSize=24;" vertex="1" parent="kWqV8s7BQ7N3uEAR5WDc-515">
          <mxGeometry x="950" y="56" width="70" height="40" as="geometry" />
        </mxCell>
        <mxCell id="JDcblKeP8Rod2Rn7jInz-42" value="Private subnet" style="points=[[0,0],[0.25,0],[0.5,0],[0.75,0],[1,0],[1,0.25],[1,0.5],[1,0.75],[1,1],[0.75,1],[0.5,1],[0.25,1],[0,1],[0,0.75],[0,0.5],[0,0.25]];outlineConnect=0;gradientColor=none;html=1;whiteSpace=wrap;fontSize=18;fontStyle=0;container=1;pointerEvents=0;collapsible=0;recursiveResize=0;shape=mxgraph.aws4.group;grIcon=mxgraph.aws4.group_security_group;grStroke=0;strokeColor=#147EBA;fillColor=#E6F2F8;verticalAlign=top;align=left;spacingLeft=30;fontColor=#147EBA;dashed=0;" vertex="1" parent="kWqV8s7BQ7N3uEAR5WDc-515">
          <mxGeometry x="945" y="113" width="205" height="138.5" as="geometry" />
        </mxCell>
        <mxCell id="kWqV8s7BQ7N3uEAR5WDc-516" value="&lt;span style=&quot;font-size: 21px;&quot;&gt;&lt;b style=&quot;font-size: 21px;&quot;&gt;VPC&lt;/b&gt;&lt;/span&gt;" style="text;html=1;align=center;verticalAlign=middle;resizable=0;points=[];autosize=1;strokeColor=none;fillColor=none;fontStyle=0;fontSize=21;" parent="kWqV8s7BQ7N3uEAR5WDc-514" vertex="1">
          <mxGeometry x="110" y="38" width="70" height="40" as="geometry" />
        </mxCell>
        <mxCell id="kWqV8s7BQ7N3uEAR5WDc-517" value="Non-Prod ACCOUNT like SFDC/TWS" style="text;html=1;align=center;verticalAlign=middle;resizable=0;points=[];autosize=1;strokeColor=none;fillColor=none;fontSize=19;fontStyle=1" parent="1" vertex="1">
          <mxGeometry x="-1701.5" y="970" width="350" height="40" as="geometry" />
        </mxCell>
        <mxCell id="kWqV8s7BQ7N3uEAR5WDc-518" value="AWS Account" style="points=[[0,0],[0.25,0],[0.5,0],[0.75,0],[1,0],[1,0.25],[1,0.5],[1,0.75],[1,1],[0.75,1],[0.5,1],[0.25,1],[0,1],[0,0.75],[0,0.5],[0,0.25]];outlineConnect=0;gradientColor=none;html=1;whiteSpace=wrap;fontSize=16;fontStyle=0;container=1;pointerEvents=0;collapsible=0;recursiveResize=0;shape=mxgraph.aws4.group;grIcon=mxgraph.aws4.group_account;strokeColor=#CD2264;fillColor=none;verticalAlign=top;align=left;spacingLeft=30;fontColor=#CD2264;dashed=0;" parent="1" vertex="1">
          <mxGeometry x="1750" y="980" width="1040" height="580" as="geometry" />
        </mxCell>
        <mxCell id="kWqV8s7BQ7N3uEAR5WDc-519" value="VPC" style="points=[[0,0],[0.25,0],[0.5,0],[0.75,0],[1,0],[1,0.25],[1,0.5],[1,0.75],[1,1],[0.75,1],[0.5,1],[0.25,1],[0,1],[0,0.75],[0,0.5],[0,0.25]];outlineConnect=0;gradientColor=none;html=1;whiteSpace=wrap;fontSize=12;fontStyle=0;container=1;pointerEvents=0;collapsible=0;recursiveResize=0;shape=mxgraph.aws4.group;grIcon=mxgraph.aws4.group_vpc;strokeColor=#248814;fillColor=none;verticalAlign=top;align=left;spacingLeft=30;fontColor=#AAB7B8;dashed=0;" parent="kWqV8s7BQ7N3uEAR5WDc-518" vertex="1">
          <mxGeometry x="80" y="73" width="860" height="427" as="geometry" />
        </mxCell>
        <mxCell id="kWqV8s7BQ7N3uEAR5WDc-563" value="Private subnet" style="points=[[0,0],[0.25,0],[0.5,0],[0.75,0],[1,0],[1,0.25],[1,0.5],[1,0.75],[1,1],[0.75,1],[0.5,1],[0.25,1],[0,1],[0,0.75],[0,0.5],[0,0.25]];outlineConnect=0;gradientColor=none;html=1;whiteSpace=wrap;fontSize=12;fontStyle=0;container=1;pointerEvents=0;collapsible=0;recursiveResize=0;shape=mxgraph.aws4.group;grIcon=mxgraph.aws4.group_security_group;grStroke=0;strokeColor=#147EBA;fillColor=#E6F2F8;verticalAlign=top;align=left;spacingLeft=30;fontColor=#147EBA;dashed=0;" parent="kWqV8s7BQ7N3uEAR5WDc-519" vertex="1">
          <mxGeometry x="120" y="91.5" width="125" height="93" as="geometry" />
        </mxCell>
        <mxCell id="kWqV8s7BQ7N3uEAR5WDc-564" value="Private subnet" style="points=[[0,0],[0.25,0],[0.5,0],[0.75,0],[1,0],[1,0.25],[1,0.5],[1,0.75],[1,1],[0.75,1],[0.5,1],[0.25,1],[0,1],[0,0.75],[0,0.5],[0,0.25]];outlineConnect=0;gradientColor=none;html=1;whiteSpace=wrap;fontSize=12;fontStyle=0;container=1;pointerEvents=0;collapsible=0;recursiveResize=0;shape=mxgraph.aws4.group;grIcon=mxgraph.aws4.group_security_group;grStroke=0;strokeColor=#147EBA;fillColor=#E6F2F8;verticalAlign=top;align=left;spacingLeft=30;fontColor=#147EBA;dashed=0;" parent="kWqV8s7BQ7N3uEAR5WDc-519" vertex="1">
          <mxGeometry x="120" y="291.5" width="125" height="93" as="geometry" />
        </mxCell>
        <mxCell id="kWqV8s7BQ7N3uEAR5WDc-565" value="Private subnet" style="points=[[0,0],[0.25,0],[0.5,0],[0.75,0],[1,0],[1,0.25],[1,0.5],[1,0.75],[1,1],[0.75,1],[0.5,1],[0.25,1],[0,1],[0,0.75],[0,0.5],[0,0.25]];outlineConnect=0;gradientColor=none;html=1;whiteSpace=wrap;fontSize=12;fontStyle=0;container=1;pointerEvents=0;collapsible=0;recursiveResize=0;shape=mxgraph.aws4.group;grIcon=mxgraph.aws4.group_security_group;grStroke=0;strokeColor=#147EBA;fillColor=#E6F2F8;verticalAlign=top;align=left;spacingLeft=30;fontColor=#147EBA;dashed=0;" parent="kWqV8s7BQ7N3uEAR5WDc-519" vertex="1">
          <mxGeometry x="390" y="91.5" width="125" height="93" as="geometry" />
        </mxCell>
        <mxCell id="kWqV8s7BQ7N3uEAR5WDc-566" value="Private subnet" style="points=[[0,0],[0.25,0],[0.5,0],[0.75,0],[1,0],[1,0.25],[1,0.5],[1,0.75],[1,1],[0.75,1],[0.5,1],[0.25,1],[0,1],[0,0.75],[0,0.5],[0,0.25]];outlineConnect=0;gradientColor=none;html=1;whiteSpace=wrap;fontSize=12;fontStyle=0;container=1;pointerEvents=0;collapsible=0;recursiveResize=0;shape=mxgraph.aws4.group;grIcon=mxgraph.aws4.group_security_group;grStroke=0;strokeColor=#147EBA;fillColor=#E6F2F8;verticalAlign=top;align=left;spacingLeft=30;fontColor=#147EBA;dashed=0;" parent="kWqV8s7BQ7N3uEAR5WDc-519" vertex="1">
          <mxGeometry x="390" y="291.5" width="125" height="93" as="geometry" />
        </mxCell>
        <mxCell id="kWqV8s7BQ7N3uEAR5WDc-567" value="Private subnet" style="points=[[0,0],[0.25,0],[0.5,0],[0.75,0],[1,0],[1,0.25],[1,0.5],[1,0.75],[1,1],[0.75,1],[0.5,1],[0.25,1],[0,1],[0,0.75],[0,0.5],[0,0.25]];outlineConnect=0;gradientColor=none;html=1;whiteSpace=wrap;fontSize=12;fontStyle=0;container=1;pointerEvents=0;collapsible=0;recursiveResize=0;shape=mxgraph.aws4.group;grIcon=mxgraph.aws4.group_security_group;grStroke=0;strokeColor=#147EBA;fillColor=#E6F2F8;verticalAlign=top;align=left;spacingLeft=30;fontColor=#147EBA;dashed=0;" parent="kWqV8s7BQ7N3uEAR5WDc-519" vertex="1">
          <mxGeometry x="670" y="91.5" width="125" height="93" as="geometry" />
        </mxCell>
        <mxCell id="kWqV8s7BQ7N3uEAR5WDc-568" value="Private subnet" style="points=[[0,0],[0.25,0],[0.5,0],[0.75,0],[1,0],[1,0.25],[1,0.5],[1,0.75],[1,1],[0.75,1],[0.5,1],[0.25,1],[0,1],[0,0.75],[0,0.5],[0,0.25]];outlineConnect=0;gradientColor=none;html=1;whiteSpace=wrap;fontSize=12;fontStyle=0;container=1;pointerEvents=0;collapsible=0;recursiveResize=0;shape=mxgraph.aws4.group;grIcon=mxgraph.aws4.group_security_group;grStroke=0;strokeColor=#147EBA;fillColor=#E6F2F8;verticalAlign=top;align=left;spacingLeft=30;fontColor=#147EBA;dashed=0;" parent="kWqV8s7BQ7N3uEAR5WDc-519" vertex="1">
          <mxGeometry x="670" y="291.5" width="125" height="93" as="geometry" />
        </mxCell>
        <mxCell id="kWqV8s7BQ7N3uEAR5WDc-569" value="FW" style="text;html=1;align=center;verticalAlign=middle;resizable=0;points=[];autosize=1;strokeColor=none;fillColor=none;" parent="kWqV8s7BQ7N3uEAR5WDc-519" vertex="1">
          <mxGeometry x="432.5" y="51.5" width="40" height="30" as="geometry" />
        </mxCell>
        <mxCell id="kWqV8s7BQ7N3uEAR5WDc-570" value="Natgw" style="text;html=1;align=center;verticalAlign=middle;resizable=0;points=[];autosize=1;strokeColor=none;fillColor=none;" parent="kWqV8s7BQ7N3uEAR5WDc-519" vertex="1">
          <mxGeometry x="715" y="51.5" width="60" height="30" as="geometry" />
        </mxCell>
        <mxCell id="kWqV8s7BQ7N3uEAR5WDc-571" value="TGW" style="text;html=1;align=center;verticalAlign=middle;resizable=0;points=[];autosize=1;strokeColor=none;fillColor=none;" parent="kWqV8s7BQ7N3uEAR5WDc-519" vertex="1">
          <mxGeometry x="145" y="49.5" width="50" height="30" as="geometry" />
        </mxCell>
        <mxCell id="kWqV8s7BQ7N3uEAR5WDc-520" value="Central Egress VPC" style="text;html=1;align=center;verticalAlign=middle;resizable=0;points=[];autosize=1;strokeColor=none;fillColor=none;fontStyle=1" parent="kWqV8s7BQ7N3uEAR5WDc-518" vertex="1">
          <mxGeometry x="75" y="43" width="140" height="30" as="geometry" />
        </mxCell>
        <mxCell id="kWqV8s7BQ7N3uEAR5WDc-521" value="Common Service" style="text;html=1;align=center;verticalAlign=middle;resizable=0;points=[];autosize=1;strokeColor=none;fillColor=none;fontSize=19;fontStyle=1" parent="1" vertex="1">
          <mxGeometry x="2180" y="930" width="180" height="40" as="geometry" />
        </mxCell>
        <mxCell id="kWqV8s7BQ7N3uEAR5WDc-754" value="Corporate data center" style="points=[[0,0],[0.25,0],[0.5,0],[0.75,0],[1,0],[1,0.25],[1,0.5],[1,0.75],[1,1],[0.75,1],[0.5,1],[0.25,1],[0,1],[0,0.75],[0,0.5],[0,0.25]];outlineConnect=0;gradientColor=none;html=1;whiteSpace=wrap;fontSize=12;fontStyle=0;container=1;pointerEvents=0;collapsible=0;recursiveResize=0;shape=mxgraph.aws4.group;grIcon=mxgraph.aws4.group_corporate_data_center;strokeColor=#5A6C86;fillColor=none;verticalAlign=top;align=left;spacingLeft=30;fontColor=#5A6C86;dashed=0;" parent="1" vertex="1">
          <mxGeometry x="-1280" y="-502.5" width="315" height="405" as="geometry" />
        </mxCell>
        <mxCell id="kWqV8s7BQ7N3uEAR5WDc-840" value="Corporate&#xa;data center" style="sketch=0;outlineConnect=0;fontColor=#232F3E;gradientColor=none;strokeColor=#232F3E;fillColor=#ffffff;dashed=0;verticalLabelPosition=bottom;verticalAlign=top;align=center;html=1;fontSize=12;fontStyle=0;aspect=fixed;shape=mxgraph.aws4.resourceIcon;resIcon=mxgraph.aws4.corporate_data_center;" parent="kWqV8s7BQ7N3uEAR5WDc-754" vertex="1">
          <mxGeometry x="27.5" y="65" width="255" height="255" as="geometry" />
        </mxCell>
        <mxCell id="kWqV8s7BQ7N3uEAR5WDc-755" style="edgeStyle=orthogonalEdgeStyle;rounded=0;orthogonalLoop=1;jettySize=auto;html=1;" parent="1" source="kWqV8s7BQ7N3uEAR5WDc-762" target="kWqV8s7BQ7N3uEAR5WDc-813" edge="1">
          <mxGeometry relative="1" as="geometry">
            <Array as="points">
              <mxPoint x="105" y="320" />
            </Array>
          </mxGeometry>
        </mxCell>
        <mxCell id="kWqV8s7BQ7N3uEAR5WDc-756" style="edgeStyle=orthogonalEdgeStyle;rounded=0;orthogonalLoop=1;jettySize=auto;html=1;entryX=1.159;entryY=0.542;entryDx=0;entryDy=0;entryPerimeter=0;" parent="1" source="kWqV8s7BQ7N3uEAR5WDc-762" target="kWqV8s7BQ7N3uEAR5WDc-773" edge="1">
          <mxGeometry relative="1" as="geometry">
            <Array as="points">
              <mxPoint x="-20" y="240" />
              <mxPoint x="-20" y="66" />
            </Array>
          </mxGeometry>
        </mxCell>
        <mxCell id="kWqV8s7BQ7N3uEAR5WDc-757" style="edgeStyle=orthogonalEdgeStyle;rounded=0;orthogonalLoop=1;jettySize=auto;html=1;" parent="1" source="kWqV8s7BQ7N3uEAR5WDc-762" target="kWqV8s7BQ7N3uEAR5WDc-783" edge="1">
          <mxGeometry relative="1" as="geometry">
            <Array as="points">
              <mxPoint x="-240" y="270" />
              <mxPoint x="-240" y="490" />
            </Array>
          </mxGeometry>
        </mxCell>
        <mxCell id="kWqV8s7BQ7N3uEAR5WDc-758" style="edgeStyle=orthogonalEdgeStyle;rounded=0;orthogonalLoop=1;jettySize=auto;html=1;entryX=0.488;entryY=-0.038;entryDx=0;entryDy=0;entryPerimeter=0;" parent="1" source="kWqV8s7BQ7N3uEAR5WDc-762" target="kWqV8s7BQ7N3uEAR5WDc-815" edge="1">
          <mxGeometry relative="1" as="geometry">
            <Array as="points">
              <mxPoint x="-142" y="300" />
            </Array>
          </mxGeometry>
        </mxCell>
        <mxCell id="kWqV8s7BQ7N3uEAR5WDc-759" style="edgeStyle=orthogonalEdgeStyle;rounded=0;orthogonalLoop=1;jettySize=auto;html=1;entryX=0;entryY=0.317;entryDx=0;entryDy=0;entryPerimeter=0;" parent="1" source="kWqV8s7BQ7N3uEAR5WDc-762" target="kWqV8s7BQ7N3uEAR5WDc-793" edge="1">
          <mxGeometry relative="1" as="geometry">
            <Array as="points">
              <mxPoint x="595" y="240" />
              <mxPoint x="595" y="25" />
            </Array>
          </mxGeometry>
        </mxCell>
        <mxCell id="kWqV8s7BQ7N3uEAR5WDc-760" style="edgeStyle=orthogonalEdgeStyle;rounded=0;orthogonalLoop=1;jettySize=auto;html=1;entryX=0.519;entryY=-0.109;entryDx=0;entryDy=0;entryPerimeter=0;" parent="1" source="kWqV8s7BQ7N3uEAR5WDc-762" target="kWqV8s7BQ7N3uEAR5WDc-803" edge="1">
          <mxGeometry relative="1" as="geometry" />
        </mxCell>
        <mxCell id="kWqV8s7BQ7N3uEAR5WDc-761" style="edgeStyle=orthogonalEdgeStyle;rounded=0;orthogonalLoop=1;jettySize=auto;html=1;exitX=1;exitY=0.75;exitDx=0;exitDy=0;exitPerimeter=0;entryX=0.574;entryY=0.06;entryDx=0;entryDy=0;entryPerimeter=0;" parent="1" source="kWqV8s7BQ7N3uEAR5WDc-762" target="kWqV8s7BQ7N3uEAR5WDc-814" edge="1">
          <mxGeometry relative="1" as="geometry" />
        </mxCell>
        <mxCell id="kWqV8s7BQ7N3uEAR5WDc-762" value="" style="sketch=0;points=[[0,0,0],[0.25,0,0],[0.5,0,0],[0.75,0,0],[1,0,0],[0,1,0],[0.25,1,0],[0.5,1,0],[0.75,1,0],[1,1,0],[0,0.25,0],[0,0.5,0],[0,0.75,0],[1,0.25,0],[1,0.5,0],[1,0.75,0]];outlineConnect=0;fontColor=#232F3E;gradientColor=#945DF2;gradientDirection=north;fillColor=#5A30B5;strokeColor=#ffffff;dashed=0;verticalLabelPosition=bottom;verticalAlign=top;align=center;html=1;fontSize=12;fontStyle=0;aspect=fixed;shape=mxgraph.aws4.resourceIcon;resIcon=mxgraph.aws4.transit_gateway;" parent="1" vertex="1">
          <mxGeometry x="195" y="223" width="119.5" height="119.5" as="geometry" />
        </mxCell>
        <mxCell id="kWqV8s7BQ7N3uEAR5WDc-763" value="Transit Gateway" style="text;html=1;align=center;verticalAlign=middle;resizable=0;points=[];autosize=1;strokeColor=none;fillColor=none;fontSize=15;" parent="1" vertex="1">
          <mxGeometry x="190" y="173" width="130" height="30" as="geometry" />
        </mxCell>
        <mxCell id="kWqV8s7BQ7N3uEAR5WDc-773" value="VPN" style="text;html=1;align=center;verticalAlign=middle;resizable=0;points=[];autosize=1;strokeColor=none;fillColor=none;fontStyle=1;fontSize=17;" parent="1" vertex="1">
          <mxGeometry x="-745" y="50" width="60" height="30" as="geometry" />
        </mxCell>
        <mxCell id="kWqV8s7BQ7N3uEAR5WDc-774" value="" style="shape=table;startSize=0;container=1;collapsible=0;childLayout=tableLayout;" parent="1" vertex="1">
          <mxGeometry x="-740" y="509" width="420" height="80" as="geometry" />
        </mxCell>
        <mxCell id="kWqV8s7BQ7N3uEAR5WDc-775" value="" style="shape=tableRow;horizontal=0;startSize=0;swimlaneHead=0;swimlaneBody=0;strokeColor=inherit;top=0;left=0;bottom=0;right=0;collapsible=0;dropTarget=0;fillColor=none;points=[[0,0.5],[1,0.5]];portConstraint=eastwest;" parent="kWqV8s7BQ7N3uEAR5WDc-774" vertex="1">
          <mxGeometry width="420" height="40" as="geometry" />
        </mxCell>
        <mxCell id="kWqV8s7BQ7N3uEAR5WDc-776" value="&lt;font style=&quot;font-size: 20px;&quot;&gt;Destination&lt;/font&gt;" style="shape=partialRectangle;html=1;whiteSpace=wrap;connectable=0;strokeColor=inherit;overflow=hidden;fillColor=none;top=0;left=0;bottom=0;right=0;pointerEvents=1;" parent="kWqV8s7BQ7N3uEAR5WDc-775" vertex="1">
          <mxGeometry width="140" height="40" as="geometry">
            <mxRectangle width="140" height="40" as="alternateBounds" />
          </mxGeometry>
        </mxCell>
        <mxCell id="kWqV8s7BQ7N3uEAR5WDc-777" value="&lt;font style=&quot;font-size: 20px;&quot;&gt;Type&lt;/font&gt;" style="shape=partialRectangle;html=1;whiteSpace=wrap;connectable=0;strokeColor=inherit;overflow=hidden;fillColor=none;top=0;left=0;bottom=0;right=0;pointerEvents=1;" parent="kWqV8s7BQ7N3uEAR5WDc-775" vertex="1">
          <mxGeometry x="140" width="140" height="40" as="geometry">
            <mxRectangle width="140" height="40" as="alternateBounds" />
          </mxGeometry>
        </mxCell>
        <mxCell id="kWqV8s7BQ7N3uEAR5WDc-778" value="&lt;font style=&quot;font-size: 20px;&quot;&gt;Target&lt;/font&gt;" style="shape=partialRectangle;html=1;whiteSpace=wrap;connectable=0;strokeColor=inherit;overflow=hidden;fillColor=none;top=0;left=0;bottom=0;right=0;pointerEvents=1;" parent="kWqV8s7BQ7N3uEAR5WDc-775" vertex="1">
          <mxGeometry x="280" width="140" height="40" as="geometry">
            <mxRectangle width="140" height="40" as="alternateBounds" />
          </mxGeometry>
        </mxCell>
        <mxCell id="kWqV8s7BQ7N3uEAR5WDc-779" style="shape=tableRow;horizontal=0;startSize=0;swimlaneHead=0;swimlaneBody=0;strokeColor=inherit;top=0;left=0;bottom=0;right=0;collapsible=0;dropTarget=0;fillColor=none;points=[[0,0.5],[1,0.5]];portConstraint=eastwest;" parent="kWqV8s7BQ7N3uEAR5WDc-774" vertex="1">
          <mxGeometry y="40" width="420" height="40" as="geometry" />
        </mxCell>
        <mxCell id="kWqV8s7BQ7N3uEAR5WDc-780" style="shape=partialRectangle;html=1;whiteSpace=wrap;connectable=0;strokeColor=inherit;overflow=hidden;fillColor=none;top=0;left=0;bottom=0;right=0;pointerEvents=1;" parent="kWqV8s7BQ7N3uEAR5WDc-779" vertex="1">
          <mxGeometry width="140" height="40" as="geometry">
            <mxRectangle width="140" height="40" as="alternateBounds" />
          </mxGeometry>
        </mxCell>
        <mxCell id="kWqV8s7BQ7N3uEAR5WDc-781" style="shape=partialRectangle;html=1;whiteSpace=wrap;connectable=0;strokeColor=inherit;overflow=hidden;fillColor=none;top=0;left=0;bottom=0;right=0;pointerEvents=1;" parent="kWqV8s7BQ7N3uEAR5WDc-779" vertex="1">
          <mxGeometry x="140" width="140" height="40" as="geometry">
            <mxRectangle width="140" height="40" as="alternateBounds" />
          </mxGeometry>
        </mxCell>
        <mxCell id="kWqV8s7BQ7N3uEAR5WDc-782" style="shape=partialRectangle;html=1;whiteSpace=wrap;connectable=0;strokeColor=inherit;overflow=hidden;fillColor=none;top=0;left=0;bottom=0;right=0;pointerEvents=1;" parent="kWqV8s7BQ7N3uEAR5WDc-779" vertex="1">
          <mxGeometry x="280" width="140" height="40" as="geometry">
            <mxRectangle width="140" height="40" as="alternateBounds" />
          </mxGeometry>
        </mxCell>
        <mxCell id="kWqV8s7BQ7N3uEAR5WDc-783" value="VPN NON-Prod" style="text;html=1;align=center;verticalAlign=middle;resizable=0;points=[];autosize=1;strokeColor=none;fillColor=none;fontStyle=1;fontSize=17;" parent="1" vertex="1">
          <mxGeometry x="-450" y="475" width="150" height="30" as="geometry" />
        </mxCell>
        <mxCell id="kWqV8s7BQ7N3uEAR5WDc-793" value="Shared Accounts" style="text;html=1;align=center;verticalAlign=middle;resizable=0;points=[];autosize=1;strokeColor=none;fillColor=none;fontStyle=1;fontSize=18;" parent="1" vertex="1">
          <mxGeometry x="870" y="11" width="170" height="40" as="geometry" />
        </mxCell>
        <mxCell id="kWqV8s7BQ7N3uEAR5WDc-813" value="Network" style="text;html=1;align=center;verticalAlign=middle;resizable=0;points=[];autosize=1;strokeColor=none;fillColor=none;fontSize=17;" parent="1" vertex="1">
          <mxGeometry x="60" y="433" width="90" height="30" as="geometry" />
        </mxCell>
        <mxCell id="kWqV8s7BQ7N3uEAR5WDc-814" value="Central Ingress" style="text;html=1;align=center;verticalAlign=middle;resizable=0;points=[];autosize=1;strokeColor=none;fillColor=none;fontStyle=1;fontSize=17;" parent="1" vertex="1">
          <mxGeometry x="660" y="600" width="150" height="30" as="geometry" />
        </mxCell>
        <mxCell id="kWqV8s7BQ7N3uEAR5WDc-815" value="Central Egress" style="text;html=1;align=center;verticalAlign=middle;resizable=0;points=[];autosize=1;strokeColor=none;fillColor=none;fontStyle=1;fontSize=17;" parent="1" vertex="1">
          <mxGeometry x="-210" y="600" width="140" height="30" as="geometry" />
        </mxCell>
        <mxCell id="kWqV8s7BQ7N3uEAR5WDc-839" style="edgeStyle=orthogonalEdgeStyle;rounded=0;orthogonalLoop=1;jettySize=auto;html=1;entryX=1;entryY=0.5;entryDx=0;entryDy=0;" parent="1" source="kWqV8s7BQ7N3uEAR5WDc-837" target="kWqV8s7BQ7N3uEAR5WDc-754" edge="1">
          <mxGeometry relative="1" as="geometry" />
        </mxCell>
        <mxCell id="JDcblKeP8Rod2Rn7jInz-11" value="10.1.0./16" style="text;html=1;align=center;verticalAlign=middle;resizable=0;points=[];autosize=1;strokeColor=none;fillColor=none;fontSize=44;" vertex="1" parent="1">
          <mxGeometry x="-780" y="-515" width="220" height="70" as="geometry" />
        </mxCell>
        <mxCell id="JDcblKeP8Rod2Rn7jInz-12" value="10.2.0./16" style="text;html=1;align=center;verticalAlign=middle;resizable=0;points=[];autosize=1;strokeColor=none;fillColor=none;fontSize=44;" vertex="1" parent="1">
          <mxGeometry x="-2160" y="940" width="220" height="70" as="geometry" />
        </mxCell>
        <mxCell id="JDcblKeP8Rod2Rn7jInz-15" value="10.5.0./16" style="text;html=1;align=center;verticalAlign=middle;resizable=0;points=[];autosize=1;strokeColor=none;fillColor=none;fontSize=44;" vertex="1" parent="1">
          <mxGeometry x="1770" y="-30" width="220" height="70" as="geometry" />
        </mxCell>
        <mxCell id="JDcblKeP8Rod2Rn7jInz-16" value="10.6.0./16" style="text;html=1;align=center;verticalAlign=middle;resizable=0;points=[];autosize=1;strokeColor=none;fillColor=none;fontSize=44;" vertex="1" parent="1">
          <mxGeometry x="1770" y="910" width="220" height="70" as="geometry" />
        </mxCell>
        <mxCell id="JDcblKeP8Rod2Rn7jInz-18" value="Private subnet" style="points=[[0,0],[0.25,0],[0.5,0],[0.75,0],[1,0],[1,0.25],[1,0.5],[1,0.75],[1,1],[0.75,1],[0.5,1],[0.25,1],[0,1],[0,0.75],[0,0.5],[0,0.25]];outlineConnect=0;gradientColor=none;html=1;whiteSpace=wrap;fontSize=18;fontStyle=0;container=1;pointerEvents=0;collapsible=0;recursiveResize=0;shape=mxgraph.aws4.group;grIcon=mxgraph.aws4.group_security_group;grStroke=0;strokeColor=#147EBA;fillColor=#E6F2F8;verticalAlign=top;align=left;spacingLeft=30;fontColor=#147EBA;dashed=0;" vertex="1" parent="1">
          <mxGeometry x="-2028" y="1195.5" width="205" height="138.5" as="geometry" />
        </mxCell>
        <mxCell id="JDcblKeP8Rod2Rn7jInz-98" value="" style="shape=table;startSize=0;container=1;collapsible=0;childLayout=tableLayout;" vertex="1" parent="1">
          <mxGeometry x="-460" y="1420" width="380" height="130" as="geometry" />
        </mxCell>
        <mxCell id="JDcblKeP8Rod2Rn7jInz-99" value="" style="shape=tableRow;horizontal=0;startSize=0;swimlaneHead=0;swimlaneBody=0;strokeColor=inherit;top=0;left=0;bottom=0;right=0;collapsible=0;dropTarget=0;fillColor=none;points=[[0,0.5],[1,0.5]];portConstraint=eastwest;" vertex="1" parent="JDcblKeP8Rod2Rn7jInz-98">
          <mxGeometry width="380" height="65" as="geometry" />
        </mxCell>
        <mxCell id="JDcblKeP8Rod2Rn7jInz-100" value="&lt;font style=&quot;font-size: 22px;&quot;&gt;Destination&lt;/font&gt;" style="shape=partialRectangle;html=1;whiteSpace=wrap;connectable=0;strokeColor=inherit;overflow=hidden;fillColor=none;top=0;left=0;bottom=0;right=0;pointerEvents=1;" vertex="1" parent="JDcblKeP8Rod2Rn7jInz-99">
          <mxGeometry width="190" height="65" as="geometry">
            <mxRectangle width="190" height="65" as="alternateBounds" />
          </mxGeometry>
        </mxCell>
        <mxCell id="JDcblKeP8Rod2Rn7jInz-102" value="&lt;font style=&quot;font-size: 22px;&quot;&gt;Target&lt;/font&gt;" style="shape=partialRectangle;html=1;whiteSpace=wrap;connectable=0;strokeColor=inherit;overflow=hidden;fillColor=none;top=0;left=0;bottom=0;right=0;pointerEvents=1;" vertex="1" parent="JDcblKeP8Rod2Rn7jInz-99">
          <mxGeometry x="190" width="190" height="65" as="geometry">
            <mxRectangle width="190" height="65" as="alternateBounds" />
          </mxGeometry>
        </mxCell>
        <mxCell id="JDcblKeP8Rod2Rn7jInz-103" style="shape=tableRow;horizontal=0;startSize=0;swimlaneHead=0;swimlaneBody=0;strokeColor=inherit;top=0;left=0;bottom=0;right=0;collapsible=0;dropTarget=0;fillColor=none;points=[[0,0.5],[1,0.5]];portConstraint=eastwest;" vertex="1" parent="JDcblKeP8Rod2Rn7jInz-98">
          <mxGeometry y="65" width="380" height="65" as="geometry" />
        </mxCell>
        <mxCell id="JDcblKeP8Rod2Rn7jInz-104" style="shape=partialRectangle;html=1;whiteSpace=wrap;connectable=0;strokeColor=inherit;overflow=hidden;fillColor=none;top=0;left=0;bottom=0;right=0;pointerEvents=1;" vertex="1" parent="JDcblKeP8Rod2Rn7jInz-103">
          <mxGeometry width="190" height="65" as="geometry">
            <mxRectangle width="190" height="65" as="alternateBounds" />
          </mxGeometry>
        </mxCell>
        <mxCell id="JDcblKeP8Rod2Rn7jInz-106" style="shape=partialRectangle;html=1;whiteSpace=wrap;connectable=0;strokeColor=inherit;overflow=hidden;fillColor=none;top=0;left=0;bottom=0;right=0;pointerEvents=1;" vertex="1" parent="JDcblKeP8Rod2Rn7jInz-103">
          <mxGeometry x="190" width="190" height="65" as="geometry">
            <mxRectangle width="190" height="65" as="alternateBounds" />
          </mxGeometry>
        </mxCell>
        <mxCell id="JDcblKeP8Rod2Rn7jInz-107" value="" style="shape=table;startSize=0;container=1;collapsible=0;childLayout=tableLayout;" vertex="1" parent="1">
          <mxGeometry x="20" y="1420" width="380" height="130" as="geometry" />
        </mxCell>
        <mxCell id="JDcblKeP8Rod2Rn7jInz-108" value="" style="shape=tableRow;horizontal=0;startSize=0;swimlaneHead=0;swimlaneBody=0;strokeColor=inherit;top=0;left=0;bottom=0;right=0;collapsible=0;dropTarget=0;fillColor=none;points=[[0,0.5],[1,0.5]];portConstraint=eastwest;" vertex="1" parent="JDcblKeP8Rod2Rn7jInz-107">
          <mxGeometry width="380" height="65" as="geometry" />
        </mxCell>
        <mxCell id="JDcblKeP8Rod2Rn7jInz-109" value="&lt;font style=&quot;font-size: 22px;&quot;&gt;Destination&lt;/font&gt;" style="shape=partialRectangle;html=1;whiteSpace=wrap;connectable=0;strokeColor=inherit;overflow=hidden;fillColor=none;top=0;left=0;bottom=0;right=0;pointerEvents=1;" vertex="1" parent="JDcblKeP8Rod2Rn7jInz-108">
          <mxGeometry width="190" height="65" as="geometry">
            <mxRectangle width="190" height="65" as="alternateBounds" />
          </mxGeometry>
        </mxCell>
        <mxCell id="JDcblKeP8Rod2Rn7jInz-110" value="&lt;font style=&quot;font-size: 22px;&quot;&gt;Target&lt;/font&gt;" style="shape=partialRectangle;html=1;whiteSpace=wrap;connectable=0;strokeColor=inherit;overflow=hidden;fillColor=none;top=0;left=0;bottom=0;right=0;pointerEvents=1;" vertex="1" parent="JDcblKeP8Rod2Rn7jInz-108">
          <mxGeometry x="190" width="190" height="65" as="geometry">
            <mxRectangle width="190" height="65" as="alternateBounds" />
          </mxGeometry>
        </mxCell>
        <mxCell id="JDcblKeP8Rod2Rn7jInz-111" style="shape=tableRow;horizontal=0;startSize=0;swimlaneHead=0;swimlaneBody=0;strokeColor=inherit;top=0;left=0;bottom=0;right=0;collapsible=0;dropTarget=0;fillColor=none;points=[[0,0.5],[1,0.5]];portConstraint=eastwest;" vertex="1" parent="JDcblKeP8Rod2Rn7jInz-107">
          <mxGeometry y="65" width="380" height="65" as="geometry" />
        </mxCell>
        <mxCell id="JDcblKeP8Rod2Rn7jInz-112" style="shape=partialRectangle;html=1;whiteSpace=wrap;connectable=0;strokeColor=inherit;overflow=hidden;fillColor=none;top=0;left=0;bottom=0;right=0;pointerEvents=1;" vertex="1" parent="JDcblKeP8Rod2Rn7jInz-111">
          <mxGeometry width="190" height="65" as="geometry">
            <mxRectangle width="190" height="65" as="alternateBounds" />
          </mxGeometry>
        </mxCell>
        <mxCell id="JDcblKeP8Rod2Rn7jInz-113" style="shape=partialRectangle;html=1;whiteSpace=wrap;connectable=0;strokeColor=inherit;overflow=hidden;fillColor=none;top=0;left=0;bottom=0;right=0;pointerEvents=1;" vertex="1" parent="JDcblKeP8Rod2Rn7jInz-111">
          <mxGeometry x="190" width="190" height="65" as="geometry">
            <mxRectangle width="190" height="65" as="alternateBounds" />
          </mxGeometry>
        </mxCell>
        <mxCell id="JDcblKeP8Rod2Rn7jInz-114" value="" style="shape=table;startSize=0;container=1;collapsible=0;childLayout=tableLayout;" vertex="1" parent="1">
          <mxGeometry x="490" y="1430" width="380" height="130" as="geometry" />
        </mxCell>
        <mxCell id="JDcblKeP8Rod2Rn7jInz-115" value="" style="shape=tableRow;horizontal=0;startSize=0;swimlaneHead=0;swimlaneBody=0;strokeColor=inherit;top=0;left=0;bottom=0;right=0;collapsible=0;dropTarget=0;fillColor=none;points=[[0,0.5],[1,0.5]];portConstraint=eastwest;" vertex="1" parent="JDcblKeP8Rod2Rn7jInz-114">
          <mxGeometry width="380" height="65" as="geometry" />
        </mxCell>
        <mxCell id="JDcblKeP8Rod2Rn7jInz-116" value="&lt;font style=&quot;font-size: 22px;&quot;&gt;Destination&lt;/font&gt;" style="shape=partialRectangle;html=1;whiteSpace=wrap;connectable=0;strokeColor=inherit;overflow=hidden;fillColor=none;top=0;left=0;bottom=0;right=0;pointerEvents=1;" vertex="1" parent="JDcblKeP8Rod2Rn7jInz-115">
          <mxGeometry width="190" height="65" as="geometry">
            <mxRectangle width="190" height="65" as="alternateBounds" />
          </mxGeometry>
        </mxCell>
        <mxCell id="JDcblKeP8Rod2Rn7jInz-117" value="&lt;font style=&quot;font-size: 22px;&quot;&gt;Target&lt;/font&gt;" style="shape=partialRectangle;html=1;whiteSpace=wrap;connectable=0;strokeColor=inherit;overflow=hidden;fillColor=none;top=0;left=0;bottom=0;right=0;pointerEvents=1;" vertex="1" parent="JDcblKeP8Rod2Rn7jInz-115">
          <mxGeometry x="190" width="190" height="65" as="geometry">
            <mxRectangle width="190" height="65" as="alternateBounds" />
          </mxGeometry>
        </mxCell>
        <mxCell id="JDcblKeP8Rod2Rn7jInz-118" style="shape=tableRow;horizontal=0;startSize=0;swimlaneHead=0;swimlaneBody=0;strokeColor=inherit;top=0;left=0;bottom=0;right=0;collapsible=0;dropTarget=0;fillColor=none;points=[[0,0.5],[1,0.5]];portConstraint=eastwest;" vertex="1" parent="JDcblKeP8Rod2Rn7jInz-114">
          <mxGeometry y="65" width="380" height="65" as="geometry" />
        </mxCell>
        <mxCell id="JDcblKeP8Rod2Rn7jInz-119" style="shape=partialRectangle;html=1;whiteSpace=wrap;connectable=0;strokeColor=inherit;overflow=hidden;fillColor=none;top=0;left=0;bottom=0;right=0;pointerEvents=1;" vertex="1" parent="JDcblKeP8Rod2Rn7jInz-118">
          <mxGeometry width="190" height="65" as="geometry">
            <mxRectangle width="190" height="65" as="alternateBounds" />
          </mxGeometry>
        </mxCell>
        <mxCell id="JDcblKeP8Rod2Rn7jInz-120" style="shape=partialRectangle;html=1;whiteSpace=wrap;connectable=0;strokeColor=inherit;overflow=hidden;fillColor=none;top=0;left=0;bottom=0;right=0;pointerEvents=1;" vertex="1" parent="JDcblKeP8Rod2Rn7jInz-118">
          <mxGeometry x="190" width="190" height="65" as="geometry">
            <mxRectangle width="190" height="65" as="alternateBounds" />
          </mxGeometry>
        </mxCell>
        <mxCell id="JDcblKeP8Rod2Rn7jInz-193" value="" style="shape=table;startSize=0;container=1;collapsible=0;childLayout=tableLayout;" vertex="1" parent="1">
          <mxGeometry x="-740" y="93" width="420" height="80" as="geometry" />
        </mxCell>
        <mxCell id="JDcblKeP8Rod2Rn7jInz-194" value="" style="shape=tableRow;horizontal=0;startSize=0;swimlaneHead=0;swimlaneBody=0;strokeColor=inherit;top=0;left=0;bottom=0;right=0;collapsible=0;dropTarget=0;fillColor=none;points=[[0,0.5],[1,0.5]];portConstraint=eastwest;" vertex="1" parent="JDcblKeP8Rod2Rn7jInz-193">
          <mxGeometry width="420" height="40" as="geometry" />
        </mxCell>
        <mxCell id="JDcblKeP8Rod2Rn7jInz-195" value="&lt;font style=&quot;font-size: 20px;&quot;&gt;Destination&lt;/font&gt;" style="shape=partialRectangle;html=1;whiteSpace=wrap;connectable=0;strokeColor=inherit;overflow=hidden;fillColor=none;top=0;left=0;bottom=0;right=0;pointerEvents=1;" vertex="1" parent="JDcblKeP8Rod2Rn7jInz-194">
          <mxGeometry width="140" height="40" as="geometry">
            <mxRectangle width="140" height="40" as="alternateBounds" />
          </mxGeometry>
        </mxCell>
        <mxCell id="JDcblKeP8Rod2Rn7jInz-196" value="&lt;font style=&quot;font-size: 20px;&quot;&gt;Type&lt;/font&gt;" style="shape=partialRectangle;html=1;whiteSpace=wrap;connectable=0;strokeColor=inherit;overflow=hidden;fillColor=none;top=0;left=0;bottom=0;right=0;pointerEvents=1;" vertex="1" parent="JDcblKeP8Rod2Rn7jInz-194">
          <mxGeometry x="140" width="140" height="40" as="geometry">
            <mxRectangle width="140" height="40" as="alternateBounds" />
          </mxGeometry>
        </mxCell>
        <mxCell id="JDcblKeP8Rod2Rn7jInz-197" value="&lt;font style=&quot;font-size: 20px;&quot;&gt;Target&lt;/font&gt;" style="shape=partialRectangle;html=1;whiteSpace=wrap;connectable=0;strokeColor=inherit;overflow=hidden;fillColor=none;top=0;left=0;bottom=0;right=0;pointerEvents=1;" vertex="1" parent="JDcblKeP8Rod2Rn7jInz-194">
          <mxGeometry x="280" width="140" height="40" as="geometry">
            <mxRectangle width="140" height="40" as="alternateBounds" />
          </mxGeometry>
        </mxCell>
        <mxCell id="JDcblKeP8Rod2Rn7jInz-198" style="shape=tableRow;horizontal=0;startSize=0;swimlaneHead=0;swimlaneBody=0;strokeColor=inherit;top=0;left=0;bottom=0;right=0;collapsible=0;dropTarget=0;fillColor=none;points=[[0,0.5],[1,0.5]];portConstraint=eastwest;" vertex="1" parent="JDcblKeP8Rod2Rn7jInz-193">
          <mxGeometry y="40" width="420" height="40" as="geometry" />
        </mxCell>
        <mxCell id="JDcblKeP8Rod2Rn7jInz-199" style="shape=partialRectangle;html=1;whiteSpace=wrap;connectable=0;strokeColor=inherit;overflow=hidden;fillColor=none;top=0;left=0;bottom=0;right=0;pointerEvents=1;" vertex="1" parent="JDcblKeP8Rod2Rn7jInz-198">
          <mxGeometry width="140" height="40" as="geometry">
            <mxRectangle width="140" height="40" as="alternateBounds" />
          </mxGeometry>
        </mxCell>
        <mxCell id="JDcblKeP8Rod2Rn7jInz-200" style="shape=partialRectangle;html=1;whiteSpace=wrap;connectable=0;strokeColor=inherit;overflow=hidden;fillColor=none;top=0;left=0;bottom=0;right=0;pointerEvents=1;" vertex="1" parent="JDcblKeP8Rod2Rn7jInz-198">
          <mxGeometry x="140" width="140" height="40" as="geometry">
            <mxRectangle width="140" height="40" as="alternateBounds" />
          </mxGeometry>
        </mxCell>
        <mxCell id="JDcblKeP8Rod2Rn7jInz-201" style="shape=partialRectangle;html=1;whiteSpace=wrap;connectable=0;strokeColor=inherit;overflow=hidden;fillColor=none;top=0;left=0;bottom=0;right=0;pointerEvents=1;" vertex="1" parent="JDcblKeP8Rod2Rn7jInz-198">
          <mxGeometry x="280" width="140" height="40" as="geometry">
            <mxRectangle width="140" height="40" as="alternateBounds" />
          </mxGeometry>
        </mxCell>
        <mxCell id="JDcblKeP8Rod2Rn7jInz-211" value="" style="shape=table;startSize=0;container=1;collapsible=0;childLayout=tableLayout;" vertex="1" parent="1">
          <mxGeometry x="60" y="470" width="420" height="80" as="geometry" />
        </mxCell>
        <mxCell id="JDcblKeP8Rod2Rn7jInz-212" value="" style="shape=tableRow;horizontal=0;startSize=0;swimlaneHead=0;swimlaneBody=0;strokeColor=inherit;top=0;left=0;bottom=0;right=0;collapsible=0;dropTarget=0;fillColor=none;points=[[0,0.5],[1,0.5]];portConstraint=eastwest;" vertex="1" parent="JDcblKeP8Rod2Rn7jInz-211">
          <mxGeometry width="420" height="40" as="geometry" />
        </mxCell>
        <mxCell id="JDcblKeP8Rod2Rn7jInz-213" value="&lt;font style=&quot;font-size: 20px;&quot;&gt;Destination&lt;/font&gt;" style="shape=partialRectangle;html=1;whiteSpace=wrap;connectable=0;strokeColor=inherit;overflow=hidden;fillColor=none;top=0;left=0;bottom=0;right=0;pointerEvents=1;" vertex="1" parent="JDcblKeP8Rod2Rn7jInz-212">
          <mxGeometry width="140" height="40" as="geometry">
            <mxRectangle width="140" height="40" as="alternateBounds" />
          </mxGeometry>
        </mxCell>
        <mxCell id="JDcblKeP8Rod2Rn7jInz-214" value="&lt;font style=&quot;font-size: 20px;&quot;&gt;Type&lt;/font&gt;" style="shape=partialRectangle;html=1;whiteSpace=wrap;connectable=0;strokeColor=inherit;overflow=hidden;fillColor=none;top=0;left=0;bottom=0;right=0;pointerEvents=1;" vertex="1" parent="JDcblKeP8Rod2Rn7jInz-212">
          <mxGeometry x="140" width="140" height="40" as="geometry">
            <mxRectangle width="140" height="40" as="alternateBounds" />
          </mxGeometry>
        </mxCell>
        <mxCell id="JDcblKeP8Rod2Rn7jInz-215" value="&lt;font style=&quot;font-size: 20px;&quot;&gt;Target&lt;/font&gt;" style="shape=partialRectangle;html=1;whiteSpace=wrap;connectable=0;strokeColor=inherit;overflow=hidden;fillColor=none;top=0;left=0;bottom=0;right=0;pointerEvents=1;" vertex="1" parent="JDcblKeP8Rod2Rn7jInz-212">
          <mxGeometry x="280" width="140" height="40" as="geometry">
            <mxRectangle width="140" height="40" as="alternateBounds" />
          </mxGeometry>
        </mxCell>
        <mxCell id="JDcblKeP8Rod2Rn7jInz-216" style="shape=tableRow;horizontal=0;startSize=0;swimlaneHead=0;swimlaneBody=0;strokeColor=inherit;top=0;left=0;bottom=0;right=0;collapsible=0;dropTarget=0;fillColor=none;points=[[0,0.5],[1,0.5]];portConstraint=eastwest;" vertex="1" parent="JDcblKeP8Rod2Rn7jInz-211">
          <mxGeometry y="40" width="420" height="40" as="geometry" />
        </mxCell>
        <mxCell id="JDcblKeP8Rod2Rn7jInz-217" style="shape=partialRectangle;html=1;whiteSpace=wrap;connectable=0;strokeColor=inherit;overflow=hidden;fillColor=none;top=0;left=0;bottom=0;right=0;pointerEvents=1;" vertex="1" parent="JDcblKeP8Rod2Rn7jInz-216">
          <mxGeometry width="140" height="40" as="geometry">
            <mxRectangle width="140" height="40" as="alternateBounds" />
          </mxGeometry>
        </mxCell>
        <mxCell id="JDcblKeP8Rod2Rn7jInz-218" style="shape=partialRectangle;html=1;whiteSpace=wrap;connectable=0;strokeColor=inherit;overflow=hidden;fillColor=none;top=0;left=0;bottom=0;right=0;pointerEvents=1;" vertex="1" parent="JDcblKeP8Rod2Rn7jInz-216">
          <mxGeometry x="140" width="140" height="40" as="geometry">
            <mxRectangle width="140" height="40" as="alternateBounds" />
          </mxGeometry>
        </mxCell>
        <mxCell id="JDcblKeP8Rod2Rn7jInz-219" style="shape=partialRectangle;html=1;whiteSpace=wrap;connectable=0;strokeColor=inherit;overflow=hidden;fillColor=none;top=0;left=0;bottom=0;right=0;pointerEvents=1;" vertex="1" parent="JDcblKeP8Rod2Rn7jInz-216">
          <mxGeometry x="280" width="140" height="40" as="geometry">
            <mxRectangle width="140" height="40" as="alternateBounds" />
          </mxGeometry>
        </mxCell>
        <mxCell id="JDcblKeP8Rod2Rn7jInz-220" value="" style="shape=table;startSize=0;container=1;collapsible=0;childLayout=tableLayout;" vertex="1" parent="1">
          <mxGeometry x="400" y="630" width="420" height="80" as="geometry" />
        </mxCell>
        <mxCell id="JDcblKeP8Rod2Rn7jInz-221" value="" style="shape=tableRow;horizontal=0;startSize=0;swimlaneHead=0;swimlaneBody=0;strokeColor=inherit;top=0;left=0;bottom=0;right=0;collapsible=0;dropTarget=0;fillColor=none;points=[[0,0.5],[1,0.5]];portConstraint=eastwest;" vertex="1" parent="JDcblKeP8Rod2Rn7jInz-220">
          <mxGeometry width="420" height="40" as="geometry" />
        </mxCell>
        <mxCell id="JDcblKeP8Rod2Rn7jInz-222" value="&lt;font style=&quot;font-size: 20px;&quot;&gt;Destination&lt;/font&gt;" style="shape=partialRectangle;html=1;whiteSpace=wrap;connectable=0;strokeColor=inherit;overflow=hidden;fillColor=none;top=0;left=0;bottom=0;right=0;pointerEvents=1;" vertex="1" parent="JDcblKeP8Rod2Rn7jInz-221">
          <mxGeometry width="140" height="40" as="geometry">
            <mxRectangle width="140" height="40" as="alternateBounds" />
          </mxGeometry>
        </mxCell>
        <mxCell id="JDcblKeP8Rod2Rn7jInz-223" value="&lt;font style=&quot;font-size: 20px;&quot;&gt;Type&lt;/font&gt;" style="shape=partialRectangle;html=1;whiteSpace=wrap;connectable=0;strokeColor=inherit;overflow=hidden;fillColor=none;top=0;left=0;bottom=0;right=0;pointerEvents=1;" vertex="1" parent="JDcblKeP8Rod2Rn7jInz-221">
          <mxGeometry x="140" width="140" height="40" as="geometry">
            <mxRectangle width="140" height="40" as="alternateBounds" />
          </mxGeometry>
        </mxCell>
        <mxCell id="JDcblKeP8Rod2Rn7jInz-224" value="&lt;font style=&quot;font-size: 20px;&quot;&gt;Target&lt;/font&gt;" style="shape=partialRectangle;html=1;whiteSpace=wrap;connectable=0;strokeColor=inherit;overflow=hidden;fillColor=none;top=0;left=0;bottom=0;right=0;pointerEvents=1;" vertex="1" parent="JDcblKeP8Rod2Rn7jInz-221">
          <mxGeometry x="280" width="140" height="40" as="geometry">
            <mxRectangle width="140" height="40" as="alternateBounds" />
          </mxGeometry>
        </mxCell>
        <mxCell id="JDcblKeP8Rod2Rn7jInz-225" style="shape=tableRow;horizontal=0;startSize=0;swimlaneHead=0;swimlaneBody=0;strokeColor=inherit;top=0;left=0;bottom=0;right=0;collapsible=0;dropTarget=0;fillColor=none;points=[[0,0.5],[1,0.5]];portConstraint=eastwest;" vertex="1" parent="JDcblKeP8Rod2Rn7jInz-220">
          <mxGeometry y="40" width="420" height="40" as="geometry" />
        </mxCell>
        <mxCell id="JDcblKeP8Rod2Rn7jInz-226" style="shape=partialRectangle;html=1;whiteSpace=wrap;connectable=0;strokeColor=inherit;overflow=hidden;fillColor=none;top=0;left=0;bottom=0;right=0;pointerEvents=1;" vertex="1" parent="JDcblKeP8Rod2Rn7jInz-225">
          <mxGeometry width="140" height="40" as="geometry">
            <mxRectangle width="140" height="40" as="alternateBounds" />
          </mxGeometry>
        </mxCell>
        <mxCell id="JDcblKeP8Rod2Rn7jInz-227" style="shape=partialRectangle;html=1;whiteSpace=wrap;connectable=0;strokeColor=inherit;overflow=hidden;fillColor=none;top=0;left=0;bottom=0;right=0;pointerEvents=1;" vertex="1" parent="JDcblKeP8Rod2Rn7jInz-225">
          <mxGeometry x="140" width="140" height="40" as="geometry">
            <mxRectangle width="140" height="40" as="alternateBounds" />
          </mxGeometry>
        </mxCell>
        <mxCell id="JDcblKeP8Rod2Rn7jInz-228" style="shape=partialRectangle;html=1;whiteSpace=wrap;connectable=0;strokeColor=inherit;overflow=hidden;fillColor=none;top=0;left=0;bottom=0;right=0;pointerEvents=1;" vertex="1" parent="JDcblKeP8Rod2Rn7jInz-225">
          <mxGeometry x="280" width="140" height="40" as="geometry">
            <mxRectangle width="140" height="40" as="alternateBounds" />
          </mxGeometry>
        </mxCell>
      </root>
    </mxGraphModel>
  </diagram>
</mxfile>
